<?xml version="1.0" encoding="utf-8"?>
<!-- Generator: Adobe Illustrator 21.0.1, SVG Export Plug-In . SVG Version: 6.00 Build 0)  -->
<svg version="1.1" id="Layer_1" xmlns="http://www.w3.org/2000/svg" xmlns:xlink="http://www.w3.org/1999/xlink" x="0px" y="0px"
	 viewBox="0 0 119.5 119.5" style="enable-background:new 0 0 119.5 119.5;" xml:space="preserve">
<style type="text/css">
	.st0{fill:none;stroke:#000000;stroke-miterlimit:10;}
	.st1{clip-path:url(#SVGID_2_);}
	.st2{clip-path:url(#SVGID_4_);fill:#E2D4B0;}
	.st3{clip-path:url(#SVGID_4_);fill:#D8C19C;}
	.st4{clip-path:url(#SVGID_4_);fill:#231F20;}
	.st5{clip-path:url(#SVGID_4_);fill:#414142;}
	.st6{clip-path:url(#SVGID_4_);}
	.st7{clip-path:url(#SVGID_4_);fill:#040707;}
</style>
<g>
	<g>
		<path class="st0" d="M381.7,60.7"/>
	</g>
</g>
<g>
	<g>
		<defs>
			<rect id="SVGID_1_" x="3.9" y="7.2" width="112.2" height="107"/>
		</defs>
		<clipPath id="SVGID_2_">
			<use xlink:href="#SVGID_1_"  style="overflow:visible;"/>
		</clipPath>
		<g class="st1">
			<g>
				<defs>
					<rect id="SVGID_3_" x="3.9" y="7.2" width="112.2" height="107"/>
				</defs>
				<clipPath id="SVGID_4_">
					<use xlink:href="#SVGID_3_"  style="overflow:visible;"/>
				</clipPath>
				<path class="st2" d="M99.2,50.5c-7.8,1.2-19.8,2.1-32.7,2.2l0.4,0l-0.2,11.8c14,0,25.8,0.8,33.3,2.2c0.3-2,0.5-4.1,0.5-6.2
					C100.5,57.1,100.1,53.7,99.2,50.5 M91.9,58.2c-4.8,5.9-10.7,3.3-13.2,1.6c-0.5-0.3-0.3-1.1,0.3-1.1l12.4-1.5
					C91.9,57.1,92.3,57.7,91.9,58.2"/>
				<path class="st3" d="M66.4,52.7c-1.9,0-3.9,0-5.8,0c-11.3,0-21.5-0.5-29-1.4c-0.7,2.9-1.1,6-1.1,9.2c0,2,0.1,3.9,0.4,5.7
					c9-1.1,21.7-1.7,34.5-1.7c0.4,0,0.8,0,1.3,0l0.2-11.8L66.4,52.7z M53.2,59.8c-2.6,1.6-8.5,4.3-13.2-1.6c-0.3-0.4,0-1.1,0.6-1
					L53,58.6C53.6,58.7,53.7,59.5,53.2,59.8"/>
				<path class="st4" d="M65.5,18.7c-19,0-34.9,14.3-38.7,33.2c-2.5-1.7-5.3-2.8-8.4-3.2c-4-0.5-8,0.4-11.6,2.5
					C6.3,51.4,6,51.9,6,52.5c0,0.4,0.2,0.9,0.5,1.2c2.7,2.6,6.1,4.3,9.7,5v0c0.5,0.1,1,0.2,1.5,0.2c-0.8,0.4-1.6,0.7-2.4,0.9
					L14.5,60l-0.3,0.5c-1.6,3.5-2.4,7.3-2.2,11.2c0,0.8,0.5,1.5,1.2,1.9c0.4,0.2,0.8,0.3,1.2,0.3c0.4,0,0.7-0.1,1.1-0.2
					c4.6-2.2,8.3-6.1,10.4-10.9c1.1,22.1,18.4,39.6,39.5,39.6c21.8,0,39.6-18.8,39.6-41.9C105.1,37.5,87.3,18.7,65.5,18.7
					 M65.4,22.1c14.1,0,26.3,8.7,32.2,21.3c-0.8-1-1.6-1.9-2.5-2.8C86.4,31.3,74.3,25.6,61,25.6c-3.7,0-7.2,0.4-10.6,1.3
					c-1.5,0.4-3.1,0.8-4.5,1.3C51.5,24.3,58.2,22.1,65.4,22.1 M65.7,99c-14.1,0-26.3-8.7-32.2-21.3c0.8,1,1.6,1.9,2.5,2.8
					c8.7,9.2,20.8,14.9,34.1,14.9c3.7,0,7.2-0.4,10.6-1.3c1.5-0.4,3.1-0.8,4.5-1.3C79.6,96.8,72.9,99,65.7,99 M66.8,64.6
					c-0.4,0-0.8,0-1.3,0c-12.8,0-25.6,0.7-34.5,1.7c-0.3-1.9-0.4-3.8-0.4-5.7c0-3.2,0.4-6.2,1.1-9.2c7.5,0.9,17.7,1.4,29,1.4
					c2,0,3.9,0,5.8,0c12.9-0.2,25-1,32.7-2.2c0.8,3.2,1.3,6.6,1.3,10.1c0,2.1-0.2,4.2-0.5,6.2C92.6,65.4,80.8,64.6,66.8,64.6"/>
				<path class="st5" d="M61,25.6c13.3,0,25.3,5.7,34.1,14.9c0.9,0.9,1.7,1.8,2.5,2.8c-5.8-12.6-18-21.3-32.2-21.3
					c-7.2,0-13.9,2.2-19.5,6.1c1.5-0.5,3-1,4.5-1.3C53.8,26.1,57.4,25.6,61,25.6"/>
				<path class="st5" d="M70.1,95.5c-13.3,0-25.3-5.7-34.1-14.9c-0.8-0.9-1.7-1.8-2.5-2.8C39.4,90.4,51.6,99,65.7,99
					c7.2,0,13.9-2.2,19.5-6.1c-1.5,0.5-3,1-4.5,1.3C77.3,95.1,73.7,95.5,70.1,95.5"/>
				<path class="st6" d="M53,58.6l-12.4-1.5c-0.6-0.1-0.9,0.6-0.6,1c4.8,5.9,10.7,3.3,13.2,1.6C53.7,59.5,53.6,58.7,53,58.6"/>
				<path class="st6" d="M91.4,57.2L79,58.6c-0.6,0.1-0.8,0.8-0.3,1.1c2.6,1.6,8.5,4.3,13.2-1.6C92.3,57.7,91.9,57.1,91.4,57.2"/>
				<path class="st7" d="M65.4,112c-10.5-0.1-20.5-3.7-28.9-10.3C28.4,95.3,22.3,86,19.3,75.8L19,75l0.6-0.5
					c0.9-0.8,1.7-1.7,2.5-2.7l1.7-2.1l0.7,2.6c7.4,23.3,22.2,33.4,41,33.4c0,0,0.1,0,0.2,0c11.3,0,21.9-4.8,29.9-13.3
					c8-8.6,12.4-20,12.4-32c0-12.1-4.5-23.4-12.6-31.9c-8-8.5-18.6-13.1-29.9-13.1c-0.1,0-0.4,0-0.4,0C46.5,15.4,30.5,28,25.1,46.7
					l-0.4,1.5l-1.4-0.7c-0.9-0.4-1.9-0.8-2.8-1.1l-1.2-0.4l0.4-1.2C25.8,23.7,44,9.4,64.9,9.3c0.1,0,0.4,0,0.5,0
					c12.9,0,25,5.3,34.1,15c9.2,9.7,14.2,22.5,14.3,36.2c0.1,28.3-21.5,51.5-48.2,51.6H65.4z"/>
			</g>
		</g>
	</g>
</g>
</svg>
