<?xml version="1.0" encoding="utf-8"?>
<!-- Generator: Adobe Illustrator 21.0.1, SVG Export Plug-In . SVG Version: 6.00 Build 0)  -->
<svg version="1.1" id="Layer_1" xmlns="http://www.w3.org/2000/svg" xmlns:xlink="http://www.w3.org/1999/xlink" x="0px" y="0px"
	 viewBox="0 0 119.5 119.5" style="enable-background:new 0 0 119.5 119.5;" xml:space="preserve">
<style type="text/css">
	.st0{fill:none;stroke:#000000;stroke-miterlimit:10;}
	.st1{clip-path:url(#SVGID_2_);}
	.st2{clip-path:url(#SVGID_4_);fill:#E2D4B0;}
	.st3{clip-path:url(#SVGID_4_);fill:#D8C19C;}
	.st4{clip-path:url(#SVGID_4_);fill:#231F20;}
	.st5{clip-path:url(#SVGID_4_);fill:#414142;}
	.st6{clip-path:url(#SVGID_4_);}
	.st7{clip-path:url(#SVGID_4_);fill:#4472B8;}
	.st8{clip-path:url(#SVGID_6_);}
	.st9{clip-path:url(#SVGID_8_);fill:#E2D4B0;}
	.st10{clip-path:url(#SVGID_8_);fill:#D8C19C;}
	.st11{clip-path:url(#SVGID_8_);fill:#231F20;}
	.st12{clip-path:url(#SVGID_8_);fill:#414142;}
	.st13{clip-path:url(#SVGID_8_);}
	.st14{clip-path:url(#SVGID_8_);fill:#8A3D97;}
	.st15{clip-path:url(#SVGID_10_);}
	.st16{clip-path:url(#SVGID_12_);fill:#E2D4B0;}
	.st17{clip-path:url(#SVGID_12_);fill:#D8C19C;}
	.st18{clip-path:url(#SVGID_12_);fill:#231F20;}
	.st19{clip-path:url(#SVGID_12_);fill:#414142;}
	.st20{clip-path:url(#SVGID_12_);}
	.st21{clip-path:url(#SVGID_12_);fill:#553326;}
	.st22{clip-path:url(#SVGID_14_);}
	.st23{clip-path:url(#SVGID_16_);fill:#E2D4B0;}
	.st24{clip-path:url(#SVGID_16_);fill:#D8C19C;}
	.st25{clip-path:url(#SVGID_16_);fill:#231F20;}
	.st26{clip-path:url(#SVGID_16_);fill:#414142;}
	.st27{clip-path:url(#SVGID_16_);}
	.st28{clip-path:url(#SVGID_16_);fill:#EE3B3F;}
	.st29{clip-path:url(#SVGID_18_);}
	.st30{clip-path:url(#SVGID_20_);fill:#E2D4B0;}
	.st31{clip-path:url(#SVGID_20_);fill:#D8C19C;}
	.st32{clip-path:url(#SVGID_20_);fill:#231F20;}
	.st33{clip-path:url(#SVGID_20_);fill:#414142;}
	.st34{clip-path:url(#SVGID_20_);}
	.st35{clip-path:url(#SVGID_20_);fill:#040707;}
</style>
<g>
	<g>
		<path class="st0" d="M381.7,60.7"/>
	</g>
</g>
<g>
	<g>
		<defs>
			<rect id="SVGID_1_" x="1323.1" y="7.2" width="112.2" height="107"/>
		</defs>
		<clipPath id="SVGID_2_">
			<use xlink:href="#SVGID_1_"  style="overflow:visible;"/>
		</clipPath>
		<g class="st1">
			<g>
				<defs>
					<rect id="SVGID_3_" x="1323.1" y="7.2" width="112.2" height="107"/>
				</defs>
				<clipPath id="SVGID_4_">
					<use xlink:href="#SVGID_3_"  style="overflow:visible;"/>
				</clipPath>
				<path class="st2" d="M1418.4,50.5c-7.8,1.2-19.8,2.1-32.7,2.2l0.4,0l-0.2,11.8c14,0,25.8,0.8,33.3,2.2c0.3-2,0.5-4.1,0.5-6.2
					C1419.7,57.1,1419.3,53.7,1418.4,50.5 M1411.1,58.2c-4.8,5.9-10.7,3.3-13.2,1.6c-0.5-0.3-0.3-1.1,0.3-1.1l12.4-1.5
					C1411.1,57.1,1411.5,57.7,1411.1,58.2"/>
				<path class="st3" d="M1385.6,52.7c-1.9,0-3.9,0-5.8,0c-11.3,0-21.5-0.5-29-1.4c-0.7,2.9-1.1,6-1.1,9.2c0,2,0.1,3.9,0.4,5.7
					c9-1.1,21.7-1.7,34.5-1.7c0.4,0,0.8,0,1.3,0l0.2-11.8L1385.6,52.7z M1372.4,59.8c-2.6,1.6-8.5,4.3-13.2-1.6
					c-0.3-0.4,0-1.1,0.6-1l12.4,1.5C1372.8,58.7,1372.9,59.5,1372.4,59.8"/>
				<path class="st4" d="M1384.7,18.7c-19,0-34.9,14.3-38.7,33.2c-2.5-1.7-5.3-2.8-8.4-3.2c-4-0.5-8,0.4-11.6,2.5
					c-0.5,0.3-0.8,0.8-0.8,1.4c0,0.4,0.2,0.9,0.5,1.2c2.7,2.6,6.1,4.3,9.7,5v0c0.5,0.1,1,0.2,1.5,0.2c-0.8,0.4-1.6,0.7-2.4,0.9
					l-0.8,0.2l-0.3,0.5c-1.6,3.5-2.4,7.3-2.2,11.2c0,0.8,0.5,1.5,1.2,1.9c0.4,0.2,0.8,0.3,1.2,0.3c0.4,0,0.7-0.1,1.1-0.2
					c4.6-2.2,8.3-6.1,10.4-10.9c1.1,22.1,18.4,39.6,39.5,39.6c21.8,0,39.6-18.8,39.6-41.9C1424.3,37.5,1406.5,18.7,1384.7,18.7
					 M1384.6,22.1c14.1,0,26.3,8.7,32.2,21.3c-0.8-1-1.6-1.9-2.5-2.8c-8.7-9.2-20.8-14.9-34.1-14.9c-3.7,0-7.2,0.4-10.6,1.3
					c-1.5,0.4-3.1,0.8-4.5,1.3C1370.7,24.3,1377.4,22.1,1384.6,22.1 M1384.9,99c-14.1,0-26.3-8.7-32.2-21.3c0.8,1,1.6,1.9,2.5,2.8
					c8.7,9.2,20.8,14.9,34.1,14.9c3.7,0,7.2-0.4,10.6-1.3c1.5-0.4,3.1-0.8,4.5-1.3C1398.8,96.8,1392.1,99,1384.9,99 M1386,64.6
					c-0.4,0-0.8,0-1.3,0c-12.8,0-25.6,0.7-34.5,1.7c-0.3-1.9-0.4-3.8-0.4-5.7c0-3.2,0.4-6.2,1.1-9.2c7.5,0.9,17.7,1.4,29,1.4
					c2,0,3.9,0,5.8,0c12.9-0.2,25-1,32.7-2.2c0.8,3.2,1.3,6.6,1.3,10.1c0,2.1-0.2,4.2-0.5,6.2C1411.7,65.4,1400,64.6,1386,64.6"/>
				<path class="st5" d="M1380.2,25.6c13.3,0,25.3,5.7,34.1,14.9c0.9,0.9,1.7,1.8,2.5,2.8c-5.8-12.6-18-21.3-32.2-21.3
					c-7.2,0-13.9,2.2-19.5,6.1c1.5-0.5,3-1,4.5-1.3C1373,26.1,1376.6,25.6,1380.2,25.6"/>
				<path class="st5" d="M1389.3,95.5c-13.3,0-25.3-5.7-34.1-14.9c-0.8-0.9-1.7-1.8-2.5-2.8c5.8,12.6,18,21.3,32.2,21.3
					c7.2,0,13.9-2.2,19.5-6.1c-1.5,0.5-3,1-4.5,1.3C1396.5,95.1,1392.9,95.5,1389.3,95.5"/>
				<path class="st6" d="M1372.2,58.6l-12.4-1.5c-0.6-0.1-0.9,0.6-0.6,1c4.8,5.9,10.7,3.3,13.2,1.6
					C1372.9,59.5,1372.8,58.7,1372.2,58.6"/>
				<path class="st6" d="M1410.6,57.2l-12.4,1.5c-0.6,0.1-0.8,0.8-0.3,1.1c2.6,1.6,8.5,4.3,13.2-1.6
					C1411.5,57.7,1411.1,57.1,1410.6,57.2"/>
				<path class="st7" d="M1384.6,112c-10.5-0.1-20.5-3.7-28.9-10.3c-8.2-6.5-14.3-15.7-17.3-25.9l-0.2-0.8l0.6-0.5
					c0.9-0.8,1.7-1.7,2.5-2.7l1.7-2.1l0.7,2.6c7.4,23.3,22.2,33.4,41,33.4c0,0,0.1,0,0.2,0c11.3,0,21.9-4.8,29.9-13.3
					c8-8.6,12.4-20,12.4-32c0-12.1-4.5-23.4-12.6-31.9c-8-8.5-18.6-13.1-29.9-13.1c-0.1,0-0.4,0-0.4,0
					c-18.4,0.1-34.4,12.7-39.9,31.4l-0.4,1.5l-1.4-0.7c-0.9-0.4-1.9-0.8-2.8-1.1l-1.2-0.4l0.4-1.2c6.2-21.2,24.5-35.5,45.3-35.6
					c0.1,0,0.4,0,0.5,0c12.9,0,25,5.3,34.1,15c9.2,9.7,14.2,22.5,14.3,36.2c0.1,28.3-21.5,51.5-48.2,51.6H1384.6z"/>
			</g>
		</g>
	</g>
</g>
<g>
	<g>
		<defs>
			<rect id="SVGID_5_" x="4.1" y="7.2" width="112.2" height="107"/>
		</defs>
		<clipPath id="SVGID_6_">
			<use xlink:href="#SVGID_5_"  style="overflow:visible;"/>
		</clipPath>
		<g class="st8">
			<g>
				<defs>
					<rect id="SVGID_7_" x="4.1" y="7.2" width="112.2" height="107"/>
				</defs>
				<clipPath id="SVGID_8_">
					<use xlink:href="#SVGID_7_"  style="overflow:visible;"/>
				</clipPath>
				<path class="st9" d="M99.5,50.5c-7.8,1.2-19.8,2.1-32.7,2.2l0.4,0L67,64.6c14,0,25.8,0.8,33.3,2.2c0.3-2,0.5-4.1,0.5-6.2
					C100.8,57.1,100.3,53.7,99.5,50.5 M92.2,58.2c-4.8,5.9-10.7,3.3-13.2,1.6c-0.5-0.3-0.3-1.1,0.3-1.1l12.4-1.5
					C92.2,57.1,92.5,57.7,92.2,58.2"/>
				<path class="st10" d="M66.7,52.7c-1.9,0-3.9,0-5.8,0c-11.3,0-21.5-0.5-29-1.4c-0.7,2.9-1.1,6-1.1,9.2c0,2,0.1,3.9,0.4,5.7
					c9-1.1,21.7-1.7,34.5-1.7c0.4,0,0.8,0,1.3,0l0.2-11.8L66.7,52.7z M53.5,59.8c-2.6,1.6-8.5,4.3-13.2-1.6c-0.3-0.4,0-1.1,0.6-1
					l12.4,1.5C53.8,58.7,54,59.5,53.5,59.8"/>
				<path class="st11" d="M65.8,18.7c-19,0-34.9,14.3-38.7,33.2c-2.5-1.7-5.3-2.8-8.4-3.2c-4-0.5-8,0.4-11.6,2.5
					c-0.5,0.3-0.8,0.8-0.8,1.4c0,0.4,0.2,0.9,0.5,1.2c2.7,2.6,6.1,4.3,9.7,5v0c0.5,0.1,1,0.2,1.5,0.2c-0.8,0.4-1.6,0.7-2.4,0.9
					L14.8,60l-0.3,0.5c-1.6,3.5-2.4,7.3-2.2,11.2c0,0.8,0.5,1.5,1.2,1.9c0.4,0.2,0.8,0.3,1.2,0.3c0.4,0,0.7-0.1,1.1-0.2
					c4.6-2.2,8.3-6.1,10.4-10.9c1.1,22.1,18.4,39.6,39.5,39.6c21.8,0,39.6-18.8,39.6-41.9C105.4,37.5,87.6,18.7,65.8,18.7
					 M65.6,22.1c14.1,0,26.3,8.7,32.2,21.3c-0.8-1-1.6-1.9-2.5-2.8c-8.7-9.2-20.8-14.9-34.1-14.9c-3.7,0-7.2,0.4-10.6,1.3
					c-1.5,0.4-3.1,0.8-4.5,1.3C51.7,24.3,58.4,22.1,65.6,22.1 M66,99c-14.1,0-26.3-8.7-32.2-21.3c0.8,1,1.6,1.9,2.5,2.8
					C45,89.8,57,95.5,70.3,95.5c3.7,0,7.2-0.4,10.6-1.3c1.5-0.4,3.1-0.8,4.5-1.3C79.9,96.8,73.2,99,66,99 M67,64.6
					c-0.4,0-0.8,0-1.3,0c-12.8,0-25.6,0.7-34.5,1.7c-0.3-1.9-0.4-3.8-0.4-5.7c0-3.2,0.4-6.2,1.1-9.2c7.5,0.9,17.7,1.4,29,1.4
					c2,0,3.9,0,5.8,0c12.9-0.2,25-1,32.7-2.2c0.8,3.2,1.3,6.6,1.3,10.1c0,2.1-0.2,4.2-0.5,6.2C92.8,65.4,81,64.6,67,64.6"/>
				<path class="st12" d="M61.3,25.6c13.3,0,25.3,5.7,34.1,14.9c0.9,0.9,1.7,1.8,2.5,2.8c-5.8-12.6-18-21.3-32.2-21.3
					c-7.2,0-13.9,2.2-19.5,6.1c1.5-0.5,3-1,4.5-1.3C54.1,26.1,57.6,25.6,61.3,25.6"/>
				<path class="st12" d="M70.3,95.5C57,95.5,45,89.8,36.3,80.6c-0.8-0.9-1.7-1.8-2.5-2.8C39.6,90.4,51.8,99,66,99
					c7.2,0,13.9-2.2,19.5-6.1c-1.5,0.5-3,1-4.5,1.3C77.5,95.1,74,95.5,70.3,95.5"/>
				<path class="st13" d="M53.2,58.6l-12.4-1.5c-0.6-0.1-0.9,0.6-0.6,1c4.8,5.9,10.7,3.3,13.2,1.6C54,59.5,53.8,58.7,53.2,58.6"/>
				<path class="st13" d="M91.6,57.2l-12.4,1.5c-0.6,0.1-0.8,0.8-0.3,1.1c2.6,1.6,8.5,4.3,13.2-1.6C92.5,57.7,92.2,57.1,91.6,57.2"
					/>
				<path class="st14" d="M65.7,112c-10.5-0.1-20.5-3.7-28.9-10.3C28.7,95.3,22.5,86,19.5,75.8L19.3,75l0.6-0.5
					c0.9-0.8,1.7-1.7,2.5-2.7l1.7-2.1l0.7,2.6c7.4,23.3,22.2,33.4,41,33.4c0,0,0.1,0,0.2,0c11.3,0,21.9-4.8,29.9-13.3
					c8-8.6,12.4-20,12.4-32c0-12.1-4.5-23.4-12.6-31.9c-8-8.5-18.6-13.1-29.9-13.1c-0.1,0-0.4,0-0.4,0C46.8,15.4,30.8,28,25.3,46.7
					l-0.4,1.5l-1.4-0.7c-0.9-0.4-1.9-0.8-2.8-1.1l-1.2-0.4l0.4-1.2C26,23.7,44.3,9.4,65.2,9.3c0.1,0,0.4,0,0.5,0
					c12.9,0,25,5.3,34.1,15c9.2,9.7,14.2,22.5,14.3,36.2c0.1,28.3-21.5,51.5-48.2,51.6H65.7z"/>
			</g>
		</g>
	</g>
</g>
<g>
	<g>
		<defs>
			<rect id="SVGID_9_" x="1517" y="7.2" width="112.2" height="107"/>
		</defs>
		<clipPath id="SVGID_10_">
			<use xlink:href="#SVGID_9_"  style="overflow:visible;"/>
		</clipPath>
		<g class="st15">
			<g>
				<defs>
					<rect id="SVGID_11_" x="1517" y="7.2" width="112.2" height="107"/>
				</defs>
				<clipPath id="SVGID_12_">
					<use xlink:href="#SVGID_11_"  style="overflow:visible;"/>
				</clipPath>
				<path class="st16" d="M1612.4,50.5c-7.8,1.2-19.8,2.1-32.7,2.2l0.4,0l-0.2,11.8c14,0,25.8,0.8,33.3,2.2c0.3-2,0.5-4.1,0.5-6.2
					C1613.7,57.1,1613.2,53.7,1612.4,50.5 M1605.1,58.2c-4.8,5.9-10.7,3.3-13.2,1.6c-0.5-0.3-0.3-1.1,0.3-1.1l12.4-1.5
					C1605.1,57.1,1605.4,57.7,1605.1,58.2"/>
				<path class="st17" d="M1579.6,52.7c-1.9,0-3.9,0-5.8,0c-11.3,0-21.5-0.5-29-1.4c-0.7,2.9-1.1,6-1.1,9.2c0,2,0.1,3.9,0.4,5.7
					c9-1.1,21.7-1.7,34.5-1.7c0.4,0,0.8,0,1.3,0l0.2-11.8L1579.6,52.7z M1566.4,59.8c-2.6,1.6-8.5,4.3-13.2-1.6
					c-0.3-0.4,0-1.1,0.6-1l12.4,1.5C1566.7,58.7,1566.9,59.5,1566.4,59.8"/>
				<path class="st18" d="M1578.6,18.7c-19,0-34.9,14.3-38.7,33.2c-2.5-1.7-5.3-2.8-8.4-3.2c-4-0.5-8,0.4-11.6,2.5
					c-0.5,0.3-0.8,0.8-0.8,1.4c0,0.4,0.2,0.9,0.5,1.2c2.7,2.6,6.1,4.3,9.7,5v0c0.5,0.1,1,0.2,1.5,0.2c-0.8,0.4-1.6,0.7-2.4,0.9
					l-0.8,0.2l-0.3,0.5c-1.6,3.5-2.4,7.3-2.2,11.2c0,0.8,0.5,1.5,1.2,1.9c0.4,0.2,0.8,0.3,1.2,0.3c0.4,0,0.7-0.1,1.1-0.2
					c4.6-2.2,8.3-6.1,10.4-10.9c1.1,22.1,18.4,39.6,39.5,39.6c21.8,0,39.6-18.8,39.6-41.9C1618.2,37.5,1600.5,18.7,1578.6,18.7
					 M1578.5,22.1c14.1,0,26.3,8.7,32.2,21.3c-0.8-1-1.6-1.9-2.5-2.8c-8.7-9.2-20.8-14.9-34.1-14.9c-3.7,0-7.2,0.4-10.6,1.3
					c-1.5,0.4-3.1,0.8-4.5,1.3C1564.6,24.3,1571.3,22.1,1578.5,22.1 M1578.9,99c-14.1,0-26.3-8.7-32.2-21.3c0.8,1,1.6,1.9,2.5,2.8
					c8.7,9.2,20.8,14.9,34.1,14.9c3.7,0,7.2-0.4,10.6-1.3c1.5-0.4,3.1-0.8,4.5-1.3C1592.8,96.8,1586.1,99,1578.9,99 M1579.9,64.6
					c-0.4,0-0.8,0-1.3,0c-12.8,0-25.6,0.7-34.5,1.7c-0.3-1.9-0.4-3.8-0.4-5.7c0-3.2,0.4-6.2,1.1-9.2c7.5,0.9,17.7,1.4,29,1.4
					c2,0,3.9,0,5.8,0c12.9-0.2,25-1,32.7-2.2c0.8,3.2,1.3,6.6,1.3,10.1c0,2.1-0.2,4.2-0.5,6.2C1605.7,65.4,1593.9,64.6,1579.9,64.6"
					/>
				<path class="st19" d="M1574.1,25.6c13.3,0,25.3,5.7,34.1,14.9c0.9,0.9,1.7,1.8,2.5,2.8c-5.8-12.6-18-21.3-32.2-21.3
					c-7.2,0-13.9,2.2-19.5,6.1c1.5-0.5,3-1,4.5-1.3C1566.9,26.1,1570.5,25.6,1574.1,25.6"/>
				<path class="st19" d="M1583.2,95.5c-13.3,0-25.3-5.7-34.1-14.9c-0.8-0.9-1.7-1.8-2.5-2.8c5.8,12.6,18,21.3,32.2,21.3
					c7.2,0,13.9-2.2,19.5-6.1c-1.5,0.5-3,1-4.5,1.3C1590.4,95.1,1586.9,95.5,1583.2,95.5"/>
				<path class="st20" d="M1566.1,58.6l-12.4-1.5c-0.6-0.1-0.9,0.6-0.6,1c4.8,5.9,10.7,3.3,13.2,1.6
					C1566.9,59.5,1566.7,58.7,1566.1,58.6"/>
				<path class="st20" d="M1604.5,57.2l-12.4,1.5c-0.6,0.1-0.8,0.8-0.3,1.1c2.6,1.6,8.5,4.3,13.2-1.6
					C1605.4,57.7,1605.1,57.1,1604.5,57.2"/>
				<path class="st21" d="M1578.5,112c-10.5-0.1-20.5-3.7-28.9-10.3c-8.2-6.5-14.3-15.7-17.3-25.9l-0.2-0.8l0.6-0.5
					c0.9-0.8,1.7-1.7,2.5-2.7l1.7-2.1l0.7,2.6c7.4,23.3,22.2,33.4,41,33.4c0,0,0.1,0,0.2,0c11.3,0,21.9-4.8,29.9-13.3
					c8-8.6,12.4-20,12.4-32c0-12.1-4.5-23.4-12.6-31.9c-8-8.5-18.6-13.1-29.9-13.1c-0.1,0-0.4,0-0.4,0
					c-18.4,0.1-34.4,12.7-39.9,31.4l-0.4,1.5l-1.4-0.7c-0.9-0.4-1.9-0.8-2.8-1.1l-1.2-0.4l0.4-1.2c6.2-21.2,24.5-35.5,45.3-35.6
					c0.1,0,0.4,0,0.5,0c12.9,0,25,5.3,34.1,15c9.2,9.7,14.2,22.5,14.3,36.2c0.1,28.3-21.5,51.5-48.2,51.6H1578.5z"/>
			</g>
		</g>
	</g>
</g>
<g>
	<g>
		<defs>
			<rect id="SVGID_13_" x="1711" y="7.2" width="112.2" height="107"/>
		</defs>
		<clipPath id="SVGID_14_">
			<use xlink:href="#SVGID_13_"  style="overflow:visible;"/>
		</clipPath>
		<g class="st22">
			<g>
				<defs>
					<rect id="SVGID_15_" x="1711" y="7.2" width="112.2" height="107"/>
				</defs>
				<clipPath id="SVGID_16_">
					<use xlink:href="#SVGID_15_"  style="overflow:visible;"/>
				</clipPath>
				<path class="st23" d="M1806.3,50.5c-7.8,1.2-19.8,2.1-32.7,2.2l0.4,0l-0.2,11.8c14,0,25.8,0.8,33.3,2.2c0.3-2,0.5-4.1,0.5-6.2
					C1807.6,57.1,1807.1,53.7,1806.3,50.5 M1799,58.2c-4.8,5.9-10.7,3.3-13.2,1.6c-0.5-0.3-0.3-1.1,0.3-1.1l12.4-1.5
					C1799,57.1,1799.4,57.7,1799,58.2"/>
				<path class="st24" d="M1773.5,52.7c-1.9,0-3.9,0-5.8,0c-11.3,0-21.5-0.5-29-1.4c-0.7,2.9-1.1,6-1.1,9.2c0,2,0.1,3.9,0.4,5.7
					c9-1.1,21.7-1.7,34.5-1.7c0.4,0,0.8,0,1.3,0l0.2-11.8L1773.5,52.7z M1760.3,59.8c-2.6,1.6-8.5,4.3-13.2-1.6
					c-0.3-0.4,0-1.1,0.6-1l12.4,1.5C1760.6,58.7,1760.8,59.5,1760.3,59.8"/>
				<path class="st25" d="M1772.6,18.7c-19,0-34.9,14.3-38.7,33.2c-2.5-1.7-5.3-2.8-8.4-3.2c-4-0.5-8,0.4-11.6,2.5
					c-0.5,0.3-0.8,0.8-0.8,1.4c0,0.4,0.2,0.9,0.5,1.2c2.7,2.6,6.1,4.3,9.7,5v0c0.5,0.1,1,0.2,1.5,0.2c-0.8,0.4-1.6,0.7-2.4,0.9
					l-0.8,0.2l-0.3,0.5c-1.6,3.5-2.4,7.3-2.2,11.2c0,0.8,0.5,1.5,1.2,1.9c0.4,0.2,0.8,0.3,1.2,0.3c0.4,0,0.7-0.1,1.1-0.2
					c4.6-2.2,8.3-6.1,10.4-10.9c1.1,22.1,18.4,39.6,39.5,39.6c21.8,0,39.6-18.8,39.6-41.9C1812.2,37.5,1794.4,18.7,1772.6,18.7
					 M1772.4,22.1c14.1,0,26.3,8.7,32.2,21.3c-0.8-1-1.6-1.9-2.5-2.8c-8.7-9.2-20.8-14.9-34.1-14.9c-3.7,0-7.2,0.4-10.6,1.3
					c-1.5,0.4-3.1,0.8-4.5,1.3C1758.5,24.3,1765.2,22.1,1772.4,22.1 M1772.8,99c-14.1,0-26.3-8.7-32.2-21.3c0.8,1,1.6,1.9,2.5,2.8
					c8.7,9.2,20.8,14.9,34.1,14.9c3.7,0,7.2-0.4,10.6-1.3c1.5-0.4,3.1-0.8,4.5-1.3C1786.7,96.8,1780,99,1772.8,99 M1773.8,64.6
					c-0.4,0-0.8,0-1.3,0c-12.8,0-25.6,0.7-34.5,1.7c-0.3-1.9-0.4-3.8-0.4-5.7c0-3.2,0.4-6.2,1.1-9.2c7.5,0.9,17.7,1.4,29,1.4
					c2,0,3.9,0,5.8,0c12.9-0.2,25-1,32.7-2.2c0.8,3.2,1.3,6.6,1.3,10.1c0,2.1-0.2,4.2-0.5,6.2C1799.6,65.4,1787.8,64.6,1773.8,64.6"
					/>
				<path class="st26" d="M1768.1,25.6c13.3,0,25.3,5.7,34.1,14.9c0.9,0.9,1.7,1.8,2.5,2.8c-5.8-12.6-18-21.3-32.2-21.3
					c-7.2,0-13.9,2.2-19.5,6.1c1.5-0.5,3-1,4.5-1.3C1760.9,26.1,1764.4,25.6,1768.1,25.6"/>
				<path class="st26" d="M1777.1,95.5c-13.3,0-25.3-5.7-34.1-14.9c-0.8-0.9-1.7-1.8-2.5-2.8c5.8,12.6,18,21.3,32.2,21.3
					c7.2,0,13.9-2.2,19.5-6.1c-1.5,0.5-3,1-4.5,1.3C1784.3,95.1,1780.8,95.5,1777.1,95.5"/>
				<path class="st27" d="M1760.1,58.6l-12.4-1.5c-0.6-0.1-0.9,0.6-0.6,1c4.8,5.9,10.7,3.3,13.2,1.6
					C1760.8,59.5,1760.6,58.7,1760.1,58.6"/>
				<path class="st27" d="M1798.4,57.2l-12.4,1.5c-0.6,0.1-0.8,0.8-0.3,1.1c2.6,1.6,8.5,4.3,13.2-1.6
					C1799.4,57.7,1799,57.1,1798.4,57.2"/>
				<path class="st28" d="M1772.5,112c-10.5-0.1-20.5-3.7-28.9-10.3c-8.2-6.5-14.3-15.7-17.3-25.9l-0.2-0.8l0.6-0.5
					c0.9-0.8,1.7-1.7,2.5-2.7l1.7-2.1l0.7,2.6c7.4,23.3,22.2,33.4,41,33.4c0,0,0.1,0,0.2,0c11.3,0,21.9-4.8,29.9-13.3
					c8-8.6,12.4-20,12.4-32c0-12.1-4.5-23.4-12.6-31.9c-8-8.5-18.6-13.1-29.9-13.1c-0.1,0-0.4,0-0.4,0
					c-18.4,0.1-34.4,12.7-39.9,31.4l-0.4,1.5l-1.4-0.7c-0.9-0.4-1.9-0.8-2.8-1.1l-1.2-0.4l0.4-1.2c6.2-21.2,24.5-35.5,45.3-35.6
					c0.1,0,0.4,0,0.5,0c12.9,0,25,5.3,34.1,15c9.2,9.7,14.2,22.5,14.3,36.2c0.1,28.3-21.5,51.5-48.2,51.6H1772.5z"/>
			</g>
		</g>
	</g>
</g>
<g>
	<g>
		<defs>
			<rect id="SVGID_17_" x="1904.9" y="7.2" width="112.2" height="107"/>
		</defs>
		<clipPath id="SVGID_18_">
			<use xlink:href="#SVGID_17_"  style="overflow:visible;"/>
		</clipPath>
		<g class="st29">
			<g>
				<defs>
					<rect id="SVGID_19_" x="1904.9" y="7.2" width="112.2" height="107"/>
				</defs>
				<clipPath id="SVGID_20_">
					<use xlink:href="#SVGID_19_"  style="overflow:visible;"/>
				</clipPath>
				<path class="st30" d="M2000.2,50.5c-7.8,1.2-19.8,2.1-32.7,2.2l0.4,0l-0.2,11.8c14,0,25.8,0.8,33.3,2.2c0.3-2,0.5-4.1,0.5-6.2
					C2001.5,57.1,2001.1,53.7,2000.2,50.5 M1992.9,58.2c-4.8,5.9-10.7,3.3-13.2,1.6c-0.5-0.3-0.3-1.1,0.3-1.1l12.4-1.5
					C1992.9,57.1,1993.3,57.7,1992.9,58.2"/>
				<path class="st31" d="M1967.4,52.7c-1.9,0-3.9,0-5.8,0c-11.3,0-21.5-0.5-29-1.4c-0.7,2.9-1.1,6-1.1,9.2c0,2,0.1,3.9,0.4,5.7
					c9-1.1,21.7-1.7,34.5-1.7c0.4,0,0.8,0,1.3,0l0.2-11.8L1967.4,52.7z M1954.2,59.8c-2.6,1.6-8.5,4.3-13.2-1.6
					c-0.3-0.4,0-1.1,0.6-1l12.4,1.5C1954.6,58.7,1954.7,59.5,1954.2,59.8"/>
				<path class="st32" d="M1966.5,18.7c-19,0-34.9,14.3-38.7,33.2c-2.5-1.7-5.3-2.8-8.4-3.2c-4-0.5-8,0.4-11.6,2.5
					c-0.5,0.3-0.8,0.8-0.8,1.4c0,0.4,0.2,0.9,0.5,1.2c2.7,2.6,6.1,4.3,9.7,5v0c0.5,0.1,1,0.2,1.5,0.2c-0.8,0.4-1.6,0.7-2.4,0.9
					l-0.8,0.2l-0.3,0.5c-1.6,3.5-2.4,7.3-2.2,11.2c0,0.8,0.5,1.5,1.2,1.9c0.4,0.2,0.8,0.3,1.2,0.3c0.4,0,0.7-0.1,1.1-0.2
					c4.6-2.2,8.3-6.1,10.4-10.9c1.1,22.1,18.4,39.6,39.5,39.6c21.8,0,39.6-18.8,39.6-41.9C2006.1,37.5,1988.3,18.7,1966.5,18.7
					 M1966.4,22.1c14.1,0,26.3,8.7,32.2,21.3c-0.8-1-1.6-1.9-2.5-2.8c-8.7-9.2-20.8-14.9-34.1-14.9c-3.7,0-7.2,0.4-10.6,1.3
					c-1.5,0.4-3.1,0.8-4.5,1.3C1952.5,24.3,1959.2,22.1,1966.4,22.1 M1966.7,99c-14.1,0-26.3-8.7-32.2-21.3c0.8,1,1.6,1.9,2.5,2.8
					c8.7,9.2,20.8,14.9,34.1,14.9c3.7,0,7.2-0.4,10.6-1.3c1.5-0.4,3.1-0.8,4.5-1.3C1980.6,96.8,1973.9,99,1966.7,99 M1967.8,64.6
					c-0.4,0-0.8,0-1.3,0c-12.8,0-25.6,0.7-34.5,1.7c-0.3-1.9-0.4-3.8-0.4-5.7c0-3.2,0.4-6.2,1.1-9.2c7.5,0.9,17.7,1.4,29,1.4
					c2,0,3.9,0,5.8,0c12.9-0.2,25-1,32.7-2.2c0.8,3.2,1.3,6.6,1.3,10.1c0,2.1-0.2,4.2-0.5,6.2C1993.6,65.4,1981.8,64.6,1967.8,64.6"
					/>
				<path class="st33" d="M1962,25.6c13.3,0,25.3,5.7,34.1,14.9c0.9,0.9,1.7,1.8,2.5,2.8c-5.8-12.6-18-21.3-32.2-21.3
					c-7.2,0-13.9,2.2-19.5,6.1c1.5-0.5,3-1,4.5-1.3C1954.8,26.1,1958.4,25.6,1962,25.6"/>
				<path class="st33" d="M1971.1,95.5c-13.3,0-25.3-5.7-34.1-14.9c-0.8-0.9-1.7-1.8-2.5-2.8c5.8,12.6,18,21.3,32.2,21.3
					c7.2,0,13.9-2.2,19.5-6.1c-1.5,0.5-3,1-4.5,1.3C1978.3,95.1,1974.7,95.5,1971.1,95.5"/>
				<path class="st34" d="M1954,58.6l-12.4-1.5c-0.6-0.1-0.9,0.6-0.6,1c4.8,5.9,10.7,3.3,13.2,1.6
					C1954.7,59.5,1954.6,58.7,1954,58.6"/>
				<path class="st34" d="M1992.4,57.2l-12.4,1.5c-0.6,0.1-0.8,0.8-0.3,1.1c2.6,1.6,8.5,4.3,13.2-1.6
					C1993.3,57.7,1992.9,57.1,1992.4,57.2"/>
				<path class="st35" d="M1966.4,112c-10.5-0.1-20.5-3.7-28.9-10.3c-8.2-6.5-14.3-15.7-17.3-25.9L1920,75l0.6-0.5
					c0.9-0.8,1.7-1.7,2.5-2.7l1.7-2.1l0.7,2.6c7.4,23.3,22.2,33.4,41,33.4c0,0,0.1,0,0.2,0c11.3,0,21.9-4.8,29.9-13.3
					c8-8.6,12.4-20,12.4-32c0-12.1-4.5-23.4-12.6-31.9c-8-8.5-18.6-13.1-29.9-13.1c-0.1,0-0.4,0-0.4,0
					c-18.4,0.1-34.4,12.7-39.9,31.4l-0.4,1.5l-1.4-0.7c-0.9-0.4-1.9-0.8-2.8-1.1l-1.2-0.4l0.4-1.2c6.2-21.2,24.5-35.5,45.3-35.6
					c0.1,0,0.4,0,0.5,0c12.9,0,25,5.3,34.1,15c9.2,9.7,14.2,22.5,14.3,36.2c0.1,28.3-21.5,51.5-48.2,51.6H1966.4z"/>
			</g>
		</g>
	</g>
</g>
</svg>
