<?xml version="1.0" encoding="utf-8"?>
<!-- Generator: Adobe Illustrator 21.0.1, SVG Export Plug-In . SVG Version: 6.00 Build 0)  -->
<svg version="1.1" id="Layer_1" xmlns="http://www.w3.org/2000/svg" xmlns:xlink="http://www.w3.org/1999/xlink" x="0px" y="0px"
	 viewBox="0 0 119.5 119.5" style="enable-background:new 0 0 119.5 119.5;" xml:space="preserve">
<style type="text/css">
	.st0{fill:none;stroke:#000000;stroke-miterlimit:10;}
	.st1{clip-path:url(#SVGID_2_);}
	.st2{clip-path:url(#SVGID_4_);fill:#E2D4B0;}
	.st3{clip-path:url(#SVGID_4_);fill:#D8C19C;}
	.st4{clip-path:url(#SVGID_4_);fill:#231F20;}
	.st5{clip-path:url(#SVGID_4_);fill:#414142;}
	.st6{clip-path:url(#SVGID_4_);}
	.st7{clip-path:url(#SVGID_4_);fill:#FFFFFF;stroke:#C8CACC;stroke-width:0.673;stroke-miterlimit:10;}
	.st8{clip-path:url(#SVGID_6_);}
	.st9{clip-path:url(#SVGID_8_);fill:#E2D4B0;}
	.st10{clip-path:url(#SVGID_8_);fill:#D8C19C;}
	.st11{clip-path:url(#SVGID_8_);fill:#231F20;}
	.st12{clip-path:url(#SVGID_8_);fill:#414142;}
	.st13{clip-path:url(#SVGID_8_);}
	.st14{clip-path:url(#SVGID_8_);fill:#EBBE5B;}
	.st15{clip-path:url(#SVGID_10_);}
	.st16{clip-path:url(#SVGID_12_);fill:#E2D4B0;}
	.st17{clip-path:url(#SVGID_12_);fill:#D8C19C;}
	.st18{clip-path:url(#SVGID_12_);fill:#231F20;}
	.st19{clip-path:url(#SVGID_12_);fill:#414142;}
	.st20{clip-path:url(#SVGID_12_);}
	.st21{clip-path:url(#SVGID_12_);fill:#DA6C35;}
	.st22{clip-path:url(#SVGID_14_);}
	.st23{clip-path:url(#SVGID_16_);fill:#E2D4B0;}
	.st24{clip-path:url(#SVGID_16_);fill:#D8C19C;}
	.st25{clip-path:url(#SVGID_16_);fill:#231F20;}
	.st26{clip-path:url(#SVGID_16_);fill:#414142;}
	.st27{clip-path:url(#SVGID_16_);}
	.st28{clip-path:url(#SVGID_16_);fill:#A8CA38;}
	.st29{opacity:0.5;}
	.st30{clip-path:url(#SVGID_18_);}
	.st31{clip-path:url(#SVGID_20_);fill:#E2D4B0;}
	.st32{clip-path:url(#SVGID_20_);fill:#D8C19C;}
	.st33{clip-path:url(#SVGID_20_);fill:#231F20;}
	.st34{clip-path:url(#SVGID_20_);fill:#414142;}
	.st35{clip-path:url(#SVGID_20_);}
	.st36{clip-path:url(#SVGID_20_);fill:#4472B8;}
	.st37{clip-path:url(#SVGID_22_);}
	.st38{clip-path:url(#SVGID_24_);fill:#E2D4B0;}
	.st39{clip-path:url(#SVGID_24_);fill:#D8C19C;}
	.st40{clip-path:url(#SVGID_24_);fill:#231F20;}
	.st41{clip-path:url(#SVGID_24_);fill:#414142;}
	.st42{clip-path:url(#SVGID_24_);}
	.st43{clip-path:url(#SVGID_24_);fill:#8A3D97;}
	.st44{clip-path:url(#SVGID_26_);}
	.st45{clip-path:url(#SVGID_28_);fill:#E2D4B0;}
	.st46{clip-path:url(#SVGID_28_);fill:#D8C19C;}
	.st47{clip-path:url(#SVGID_28_);fill:#231F20;}
	.st48{clip-path:url(#SVGID_28_);fill:#414142;}
	.st49{clip-path:url(#SVGID_28_);}
	.st50{clip-path:url(#SVGID_28_);fill:#553326;}
	.st51{clip-path:url(#SVGID_30_);}
	.st52{clip-path:url(#SVGID_32_);fill:#E2D4B0;}
	.st53{clip-path:url(#SVGID_32_);fill:#D8C19C;}
	.st54{clip-path:url(#SVGID_32_);fill:#231F20;}
	.st55{clip-path:url(#SVGID_32_);fill:#414142;}
	.st56{clip-path:url(#SVGID_32_);}
	.st57{clip-path:url(#SVGID_32_);fill:#EE3B3F;}
	.st58{clip-path:url(#SVGID_34_);}
	.st59{clip-path:url(#SVGID_36_);fill:#E2D4B0;}
	.st60{clip-path:url(#SVGID_36_);fill:#D8C19C;}
	.st61{clip-path:url(#SVGID_36_);fill:#231F20;}
	.st62{clip-path:url(#SVGID_36_);fill:#414142;}
	.st63{clip-path:url(#SVGID_36_);}
	.st64{clip-path:url(#SVGID_36_);fill:#040707;}
</style>
<g>
	<g>
		<defs>
			<rect id="SVGID_1_" x="3.5" y="7.2" width="112.2" height="107"/>
		</defs>
		<clipPath id="SVGID_2_">
			<use xlink:href="#SVGID_1_"  style="overflow:visible;"/>
		</clipPath>
		<g class="st1">
			<g>
				<defs>
					<rect id="SVGID_3_" x="3.5" y="7.2" width="112.2" height="107"/>
				</defs>
				<clipPath id="SVGID_4_">
					<use xlink:href="#SVGID_3_"  style="overflow:visible;"/>
				</clipPath>
				<path class="st2" d="M98.8,50.5c-7.8,1.2-19.8,2.1-32.7,2.2l0.4,0l-0.2,11.8c14,0,25.8,0.8,33.3,2.2c0.3-2,0.5-4.1,0.5-6.2
					C100.1,57.1,99.7,53.7,98.8,50.5 M91.5,58.2c-4.8,5.9-10.7,3.3-13.2,1.6c-0.5-0.3-0.3-1.1,0.3-1.1L91,57.2
					C91.5,57.1,91.9,57.7,91.5,58.2"/>
				<path class="st3" d="M66,52.7c-1.9,0-3.9,0-5.8,0c-11.3,0-21.5-0.5-29-1.4c-0.7,2.9-1.1,6-1.1,9.2c0,2,0.1,3.9,0.4,5.7
					c9-1.1,21.7-1.7,34.5-1.7c0.4,0,0.8,0,1.3,0l0.2-11.8L66,52.7z M52.8,59.8c-2.6,1.6-8.5,4.3-13.2-1.6c-0.3-0.4,0-1.1,0.6-1
					l12.4,1.5C53.1,58.7,53.3,59.5,52.8,59.8"/>
				<path class="st4" d="M65.1,18.7c-19,0-34.9,14.3-38.7,33.2C23.9,50.1,21,49,18,48.7c-4-0.5-8,0.4-11.6,2.5
					c-0.5,0.3-0.8,0.8-0.8,1.4c0,0.4,0.2,0.9,0.5,1.2c2.7,2.6,6.1,4.3,9.7,5v0c0.5,0.1,1,0.2,1.5,0.2c-0.8,0.4-1.6,0.7-2.4,0.9
					L14.1,60l-0.3,0.5c-1.6,3.5-2.4,7.3-2.2,11.2c0,0.8,0.5,1.5,1.2,1.9c0.4,0.2,0.8,0.3,1.2,0.3c0.4,0,0.7-0.1,1.1-0.2
					c4.6-2.2,8.3-6.1,10.4-10.9c1.1,22.1,18.4,39.6,39.5,39.6c21.8,0,39.6-18.8,39.6-41.9C104.7,37.5,86.9,18.7,65.1,18.7
					 M64.9,22.1c14.1,0,26.3,8.7,32.2,21.3c-0.8-1-1.6-1.9-2.5-2.8c-8.7-9.2-20.8-14.9-34.1-14.9c-3.7,0-7.2,0.4-10.6,1.3
					c-1.5,0.4-3.1,0.8-4.5,1.3C51,24.3,57.7,22.1,64.9,22.1 M65.3,99C51.2,99,39,90.4,33.1,77.8c0.8,1,1.6,1.9,2.5,2.8
					c8.7,9.2,20.8,14.9,34.1,14.9c3.7,0,7.2-0.4,10.6-1.3c1.5-0.4,3.1-0.8,4.5-1.3C79.2,96.8,72.5,99,65.3,99 M66.3,64.6
					c-0.4,0-0.8,0-1.3,0c-12.8,0-25.6,0.7-34.5,1.7c-0.3-1.9-0.4-3.8-0.4-5.7c0-3.2,0.4-6.2,1.1-9.2c7.5,0.9,17.7,1.4,29,1.4
					c2,0,3.9,0,5.8,0c12.9-0.2,25-1,32.7-2.2c0.8,3.2,1.3,6.6,1.3,10.1c0,2.1-0.2,4.2-0.5,6.2C92.1,65.4,80.4,64.6,66.3,64.6"/>
				<path class="st5" d="M60.6,25.6c13.3,0,25.3,5.7,34.1,14.9c0.9,0.9,1.7,1.8,2.5,2.8c-5.8-12.6-18-21.3-32.2-21.3
					c-7.2,0-13.9,2.2-19.5,6.1c1.5-0.5,3-1,4.5-1.3C53.4,26.1,56.9,25.6,60.6,25.6"/>
				<path class="st5" d="M69.6,95.5c-13.3,0-25.3-5.7-34.1-14.9c-0.8-0.9-1.7-1.8-2.5-2.8C39,90.4,51.2,99,65.3,99
					c7.2,0,13.9-2.2,19.5-6.1c-1.5,0.5-3,1-4.5,1.3C76.9,95.1,73.3,95.5,69.6,95.5"/>
				<path class="st6" d="M52.6,58.6l-12.4-1.5c-0.6-0.1-0.9,0.6-0.6,1c4.8,5.9,10.7,3.3,13.2,1.6C53.3,59.5,53.1,58.7,52.6,58.6"/>
				<path class="st6" d="M91,57.2l-12.4,1.5c-0.6,0.1-0.8,0.8-0.3,1.1c2.6,1.6,8.5,4.3,13.2-1.6C91.9,57.7,91.5,57.1,91,57.2"/>
				<path class="st7" d="M65,112c-10.5-0.1-20.5-3.7-28.9-10.3C28,95.3,21.8,86,18.8,75.8L18.6,75l0.6-0.5c0.9-0.8,1.7-1.7,2.5-2.7
					l1.7-2.1l0.7,2.6c7.4,23.3,22.2,33.4,41,33.4c0,0,0.1,0,0.2,0c11.3,0,21.9-4.8,29.9-13.3c8-8.6,12.4-20,12.4-32
					c0-12.1-4.5-23.4-12.6-31.9c-8-8.5-18.6-13.1-29.9-13.1c-0.1,0-0.4,0-0.4,0C46.1,15.4,30.1,28,24.6,46.7l-0.4,1.5l-1.4-0.7
					c-0.9-0.4-1.9-0.8-2.8-1.1l-1.2-0.4l0.4-1.2C25.4,23.7,43.6,9.4,64.5,9.3c0.1,0,0.4,0,0.5,0c12.9,0,25,5.3,34.1,15
					c9.2,9.7,14.2,22.5,14.3,36.2c0.1,28.3-21.5,51.5-48.2,51.6H65z"/>
			</g>
		</g>
	</g>
</g>
</svg>
