<?xml version="1.0" encoding="utf-8"?>
<!-- Generator: Adobe Illustrator 21.0.1, SVG Export Plug-In . SVG Version: 6.00 Build 0)  -->
<svg version="1.1" id="Layer_1" xmlns="http://www.w3.org/2000/svg" xmlns:xlink="http://www.w3.org/1999/xlink" x="0px" y="0px"
	 viewBox="0 0 119.5 119.5" style="enable-background:new 0 0 119.5 119.5;" xml:space="preserve">
<style type="text/css">
	.st0{fill:none;stroke:#000000;stroke-miterlimit:10;}
	.st1{clip-path:url(#SVGID_2_);}
	.st2{clip-path:url(#SVGID_4_);fill:#E2D4B0;}
	.st3{clip-path:url(#SVGID_4_);fill:#D8C19C;}
	.st4{clip-path:url(#SVGID_4_);fill:#231F20;}
	.st5{clip-path:url(#SVGID_4_);fill:#414142;}
	.st6{clip-path:url(#SVGID_4_);}
	.st7{clip-path:url(#SVGID_4_);fill:#EBBE5B;}
	.st8{clip-path:url(#SVGID_6_);}
	.st9{clip-path:url(#SVGID_8_);fill:#E2D4B0;}
	.st10{clip-path:url(#SVGID_8_);fill:#D8C19C;}
	.st11{clip-path:url(#SVGID_8_);fill:#231F20;}
	.st12{clip-path:url(#SVGID_8_);fill:#414142;}
	.st13{clip-path:url(#SVGID_8_);}
	.st14{clip-path:url(#SVGID_8_);fill:#DA6C35;}
	.st15{clip-path:url(#SVGID_10_);}
	.st16{clip-path:url(#SVGID_12_);fill:#E2D4B0;}
	.st17{clip-path:url(#SVGID_12_);fill:#D8C19C;}
	.st18{clip-path:url(#SVGID_12_);fill:#231F20;}
	.st19{clip-path:url(#SVGID_12_);fill:#414142;}
	.st20{clip-path:url(#SVGID_12_);}
	.st21{clip-path:url(#SVGID_12_);fill:#A8CA38;}
	.st22{opacity:0.5;}
	.st23{clip-path:url(#SVGID_14_);}
	.st24{clip-path:url(#SVGID_16_);fill:#E2D4B0;}
	.st25{clip-path:url(#SVGID_16_);fill:#D8C19C;}
	.st26{clip-path:url(#SVGID_16_);fill:#231F20;}
	.st27{clip-path:url(#SVGID_16_);fill:#414142;}
	.st28{clip-path:url(#SVGID_16_);}
	.st29{clip-path:url(#SVGID_16_);fill:#4472B8;}
	.st30{clip-path:url(#SVGID_18_);}
	.st31{clip-path:url(#SVGID_20_);fill:#E2D4B0;}
	.st32{clip-path:url(#SVGID_20_);fill:#D8C19C;}
	.st33{clip-path:url(#SVGID_20_);fill:#231F20;}
	.st34{clip-path:url(#SVGID_20_);fill:#414142;}
	.st35{clip-path:url(#SVGID_20_);}
	.st36{clip-path:url(#SVGID_20_);fill:#8A3D97;}
	.st37{clip-path:url(#SVGID_22_);}
	.st38{clip-path:url(#SVGID_24_);fill:#E2D4B0;}
	.st39{clip-path:url(#SVGID_24_);fill:#D8C19C;}
	.st40{clip-path:url(#SVGID_24_);fill:#231F20;}
	.st41{clip-path:url(#SVGID_24_);fill:#414142;}
	.st42{clip-path:url(#SVGID_24_);}
	.st43{clip-path:url(#SVGID_24_);fill:#553326;}
	.st44{clip-path:url(#SVGID_26_);}
	.st45{clip-path:url(#SVGID_28_);fill:#E2D4B0;}
	.st46{clip-path:url(#SVGID_28_);fill:#D8C19C;}
	.st47{clip-path:url(#SVGID_28_);fill:#231F20;}
	.st48{clip-path:url(#SVGID_28_);fill:#414142;}
	.st49{clip-path:url(#SVGID_28_);}
	.st50{clip-path:url(#SVGID_28_);fill:#EE3B3F;}
	.st51{clip-path:url(#SVGID_30_);}
	.st52{clip-path:url(#SVGID_32_);fill:#E2D4B0;}
	.st53{clip-path:url(#SVGID_32_);fill:#D8C19C;}
	.st54{clip-path:url(#SVGID_32_);fill:#231F20;}
	.st55{clip-path:url(#SVGID_32_);fill:#414142;}
	.st56{clip-path:url(#SVGID_32_);}
	.st57{clip-path:url(#SVGID_32_);fill:#040707;}
</style>
<g>
	<g>
		<path class="st0" d="M381.7,60.7"/>
	</g>
</g>
<g>
	<g>
		<defs>
			<rect id="SVGID_1_" x="3.4" y="7.2" width="112.2" height="107"/>
		</defs>
		<clipPath id="SVGID_2_">
			<use xlink:href="#SVGID_1_"  style="overflow:visible;"/>
		</clipPath>
		<g class="st1">
			<g>
				<defs>
					<rect id="SVGID_3_" x="3.4" y="7.2" width="112.2" height="107"/>
				</defs>
				<clipPath id="SVGID_4_">
					<use xlink:href="#SVGID_3_"  style="overflow:visible;"/>
				</clipPath>
				<path class="st2" d="M98.8,50.5C91,51.7,78.9,52.5,66,52.7l0.4,0l-0.2,11.8c14,0,25.8,0.8,33.3,2.2c0.3-2,0.5-4.1,0.5-6.2
					C100.1,57.1,99.6,53.7,98.8,50.5 M91.5,58.2c-4.8,5.9-10.7,3.3-13.2,1.6c-0.5-0.3-0.3-1.1,0.3-1.1l12.4-1.5
					C91.4,57.1,91.8,57.7,91.5,58.2"/>
				<path class="st3" d="M66,52.7c-1.9,0-3.9,0-5.8,0c-11.3,0-21.5-0.5-29-1.4c-0.7,2.9-1.1,6-1.1,9.2c0,2,0.1,3.9,0.4,5.7
					c9-1.1,21.7-1.7,34.5-1.7c0.4,0,0.8,0,1.3,0l0.2-11.8L66,52.7z M52.8,59.8c-2.6,1.6-8.5,4.3-13.2-1.6c-0.3-0.4,0-1.1,0.6-1
					l12.4,1.5C53.1,58.7,53.3,59.5,52.8,59.8"/>
				<path class="st4" d="M65,18.7c-19,0-34.9,14.3-38.7,33.2C23.8,50.1,21,49,18,48.7c-4-0.5-8,0.4-11.6,2.5
					c-0.5,0.3-0.8,0.8-0.8,1.4c0,0.4,0.2,0.9,0.5,1.2c2.7,2.6,6.1,4.3,9.7,5v0c0.5,0.1,1,0.2,1.5,0.2c-0.8,0.4-1.6,0.7-2.4,0.9
					L14.1,60l-0.3,0.5c-1.6,3.5-2.4,7.3-2.2,11.2c0,0.8,0.5,1.5,1.2,1.9c0.4,0.2,0.8,0.3,1.2,0.3c0.4,0,0.7-0.1,1.1-0.2
					c4.6-2.2,8.3-6.1,10.4-10.9c1.1,22.1,18.4,39.6,39.5,39.6c21.8,0,39.6-18.8,39.6-41.9C104.6,37.5,86.9,18.7,65,18.7 M64.9,22.1
					c14.1,0,26.3,8.7,32.2,21.3c-0.8-1-1.6-1.9-2.5-2.8c-8.7-9.2-20.8-14.9-34.1-14.9c-3.7,0-7.2,0.4-10.6,1.3
					c-1.5,0.4-3.1,0.8-4.5,1.3C51,24.3,57.7,22.1,64.9,22.1 M65.2,99c-14.1,0-26.3-8.7-32.2-21.3c0.8,1,1.6,1.9,2.5,2.8
					c8.7,9.2,20.8,14.9,34.1,14.9c3.7,0,7.2-0.4,10.6-1.3c1.5-0.4,3.1-0.8,4.5-1.3C79.1,96.8,72.4,99,65.2,99 M66.3,64.6
					c-0.4,0-0.8,0-1.3,0c-12.8,0-25.6,0.7-34.5,1.7c-0.3-1.9-0.4-3.8-0.4-5.7c0-3.2,0.4-6.2,1.1-9.2c7.5,0.9,17.7,1.4,29,1.4
					c2,0,3.9,0,5.8,0c12.9-0.2,25-1,32.7-2.2c0.8,3.2,1.3,6.6,1.3,10.1c0,2.1-0.2,4.2-0.5,6.2C92.1,65.4,80.3,64.6,66.3,64.6"/>
				<path class="st5" d="M60.5,25.6c13.3,0,25.3,5.7,34.1,14.9c0.9,0.9,1.7,1.8,2.5,2.8c-5.8-12.6-18-21.3-32.2-21.3
					c-7.2,0-13.9,2.2-19.5,6.1c1.5-0.5,3-1,4.5-1.3C53.3,26.1,56.9,25.6,60.5,25.6"/>
				<path class="st5" d="M69.6,95.5c-13.3,0-25.3-5.7-34.1-14.9c-0.8-0.9-1.7-1.8-2.5-2.8C38.9,90.4,51.1,99,65.2,99
					c7.2,0,13.9-2.2,19.5-6.1c-1.5,0.5-3,1-4.5,1.3C76.8,95.1,73.2,95.5,69.6,95.5"/>
				<path class="st6" d="M52.5,58.6l-12.4-1.5c-0.6-0.1-0.9,0.6-0.6,1c4.8,5.9,10.7,3.3,13.2,1.6C53.3,59.5,53.1,58.7,52.5,58.6"/>
				<path class="st6" d="M90.9,57.2l-12.4,1.5c-0.6,0.1-0.8,0.8-0.3,1.1c2.6,1.6,8.5,4.3,13.2-1.6C91.8,57.7,91.4,57.1,90.9,57.2"/>
				<path class="st7" d="M64.9,112c-10.5-0.1-20.5-3.7-28.9-10.3C27.9,95.3,21.8,86,18.8,75.8L18.5,75l0.6-0.5
					c0.9-0.8,1.7-1.7,2.5-2.7l1.7-2.1l0.7,2.6c7.4,23.3,22.2,33.4,41,33.4c0,0,0.1,0,0.2,0c11.3,0,21.9-4.8,29.9-13.3
					c8-8.6,12.4-20,12.4-32c0-12.1-4.5-23.4-12.6-31.9c-8-8.5-18.6-13.1-29.9-13.1c-0.1,0-0.4,0-0.4,0C46.1,15.4,30,28,24.6,46.7
					l-0.4,1.5l-1.4-0.7c-0.9-0.4-1.9-0.8-2.8-1.1l-1.2-0.4l0.4-1.2C25.3,23.7,43.5,9.4,64.4,9.3c0.1,0,0.4,0,0.5,0
					c12.9,0,25,5.3,34.1,15c9.2,9.7,14.2,22.5,14.3,36.2c0.1,28.3-21.5,51.5-48.2,51.6H64.9z"/>
			</g>
		</g>
	</g>
</g>
<g>
	<g>
		<defs>
			<rect id="SVGID_5_" x="699.3" y="7.2" width="112.2" height="107"/>
		</defs>
		<clipPath id="SVGID_6_">
			<use xlink:href="#SVGID_5_"  style="overflow:visible;"/>
		</clipPath>
		<g class="st8">
			<g>
				<defs>
					<rect id="SVGID_7_" x="699.3" y="7.2" width="112.2" height="107"/>
				</defs>
				<clipPath id="SVGID_8_">
					<use xlink:href="#SVGID_7_"  style="overflow:visible;"/>
				</clipPath>
				<path class="st9" d="M794.7,50.5c-7.8,1.2-19.8,2.1-32.7,2.2l0.4,0l-0.2,11.8c14,0,25.8,0.8,33.3,2.2c0.3-2,0.5-4.1,0.5-6.2
					C796,57.1,795.5,53.7,794.7,50.5 M787.4,58.2c-4.8,5.9-10.7,3.3-13.2,1.6c-0.5-0.3-0.3-1.1,0.3-1.1l12.4-1.5
					C787.4,57.1,787.7,57.7,787.4,58.2"/>
				<path class="st10" d="M761.9,52.7c-1.9,0-3.9,0-5.8,0c-11.3,0-21.5-0.5-29-1.4c-0.7,2.9-1.1,6-1.1,9.2c0,2,0.1,3.9,0.4,5.7
					c9-1.1,21.7-1.7,34.5-1.7c0.4,0,0.8,0,1.3,0l0.2-11.8L761.9,52.7z M748.7,59.8c-2.6,1.6-8.5,4.3-13.2-1.6c-0.3-0.4,0-1.1,0.6-1
					l12.4,1.5C749,58.7,749.2,59.5,748.7,59.8"/>
				<path class="st11" d="M761,18.7c-19,0-34.9,14.3-38.7,33.2c-2.5-1.7-5.3-2.8-8.4-3.2c-4-0.5-8,0.4-11.6,2.5
					c-0.5,0.3-0.8,0.8-0.8,1.4c0,0.4,0.2,0.9,0.5,1.2c2.7,2.6,6.1,4.3,9.7,5v0c0.5,0.1,1,0.2,1.5,0.2c-0.8,0.4-1.6,0.7-2.4,0.9
					L710,60l-0.3,0.5c-1.6,3.5-2.4,7.3-2.2,11.2c0,0.8,0.5,1.5,1.2,1.9c0.4,0.2,0.8,0.3,1.2,0.3c0.4,0,0.7-0.1,1.1-0.2
					c4.6-2.2,8.3-6.1,10.4-10.9c1.1,22.1,18.4,39.6,39.5,39.6c21.8,0,39.6-18.8,39.6-41.9C800.6,37.5,782.8,18.7,761,18.7
					 M760.8,22.1c14.1,0,26.3,8.7,32.2,21.3c-0.8-1-1.6-1.9-2.5-2.8c-8.7-9.2-20.8-14.9-34.1-14.9c-3.7,0-7.2,0.4-10.6,1.3
					c-1.5,0.4-3.1,0.8-4.5,1.3C746.9,24.3,753.6,22.1,760.8,22.1 M761.2,99c-14.1,0-26.3-8.7-32.2-21.3c0.8,1,1.6,1.9,2.5,2.8
					c8.7,9.2,20.8,14.9,34.1,14.9c3.7,0,7.2-0.4,10.6-1.3c1.5-0.4,3.1-0.8,4.5-1.3C775.1,96.8,768.4,99,761.2,99 M762.2,64.6
					c-0.4,0-0.8,0-1.3,0c-12.8,0-25.6,0.7-34.5,1.7c-0.3-1.9-0.4-3.8-0.4-5.7c0-3.2,0.4-6.2,1.1-9.2c7.5,0.9,17.7,1.4,29,1.4
					c2,0,3.9,0,5.8,0c12.9-0.2,25-1,32.7-2.2c0.8,3.2,1.3,6.6,1.3,10.1c0,2.1-0.2,4.2-0.5,6.2C788,65.4,776.2,64.6,762.2,64.6"/>
				<path class="st12" d="M756.5,25.6c13.3,0,25.3,5.7,34.1,14.9c0.9,0.9,1.7,1.8,2.5,2.8c-5.8-12.6-18-21.3-32.2-21.3
					c-7.2,0-13.9,2.2-19.5,6.1c1.5-0.5,3-1,4.5-1.3C749.3,26.1,752.8,25.6,756.5,25.6"/>
				<path class="st12" d="M765.5,95.5c-13.3,0-25.3-5.7-34.1-14.9c-0.8-0.9-1.7-1.8-2.5-2.8c5.8,12.6,18,21.3,32.2,21.3
					c7.2,0,13.9-2.2,19.5-6.1c-1.5,0.5-3,1-4.5,1.3C772.7,95.1,769.2,95.5,765.5,95.5"/>
				<path class="st13" d="M748.4,58.6L736,57.2c-0.6-0.1-0.9,0.6-0.6,1c4.8,5.9,10.7,3.3,13.2,1.6C749.2,59.5,749,58.7,748.4,58.6"
					/>
				<path class="st13" d="M786.8,57.2l-12.4,1.5c-0.6,0.1-0.8,0.8-0.3,1.1c2.6,1.6,8.5,4.3,13.2-1.6
					C787.7,57.7,787.4,57.1,786.8,57.2"/>
				<path class="st14" d="M760.9,112c-10.5-0.1-20.5-3.7-28.9-10.3c-8.2-6.5-14.3-15.7-17.3-25.9l-0.2-0.8l0.6-0.5
					c0.9-0.8,1.7-1.7,2.5-2.7l1.7-2.1l0.7,2.6c7.4,23.3,22.2,33.4,41,33.4c0,0,0.1,0,0.2,0c11.3,0,21.9-4.8,29.9-13.3
					c8-8.6,12.4-20,12.4-32c0-12.1-4.5-23.4-12.6-31.9c-8-8.5-18.6-13.1-29.9-13.1c-0.1,0-0.4,0-0.4,0C742,15.4,726,28,720.5,46.7
					l-0.4,1.5l-1.4-0.7c-0.9-0.4-1.9-0.8-2.8-1.1l-1.2-0.4l0.4-1.2c6.2-21.2,24.5-35.5,45.3-35.6c0.1,0,0.4,0,0.5,0
					c12.9,0,25,5.3,34.1,15c9.2,9.7,14.2,22.5,14.3,36.2c0.1,28.3-21.5,51.5-48.2,51.6H760.9z"/>
			</g>
		</g>
	</g>
</g>
<g>
	<g>
		<defs>
			<rect id="SVGID_9_" x="893.3" y="-12.8" width="154.1" height="147"/>
		</defs>
		<clipPath id="SVGID_10_">
			<use xlink:href="#SVGID_9_"  style="overflow:visible;"/>
		</clipPath>
		<g class="st15">
			<g>
				<defs>
					<rect id="SVGID_11_" x="893.3" y="-12.8" width="154.1" height="147"/>
				</defs>
				<clipPath id="SVGID_12_">
					<use xlink:href="#SVGID_11_"  style="overflow:visible;"/>
				</clipPath>
				<path class="st16" d="M1024.3,46.7c-10.6,1.7-27.2,2.8-45,3.1l0.6,0L979.7,66c19.3,0.1,35.4,1.2,45.7,3.1
					c0.4-2.8,0.7-5.7,0.7-8.6C1026.1,55.7,1025.4,51.1,1024.3,46.7 M1014.2,57.2c-6.6,8.1-14.7,4.5-18.2,2.2
					c-0.7-0.4-0.4-1.5,0.4-1.5l17.1-2C1014.2,55.8,1014.7,56.6,1014.2,57.2"/>
				<path class="st17" d="M979.2,49.8c-2.7,0-5.3,0.1-8,0.1c-15.6,0-29.5-0.7-39.9-1.9c-1,4-1.5,8.3-1.5,12.6c0,2.7,0.2,5.3,0.6,7.9
					c12.3-1.5,29.9-2.4,47.5-2.4c0.6,0,1.2,0,1.7,0l0.2-16.2L979.2,49.8z M961.1,59.4c-3.5,2.2-11.6,5.9-18.2-2.2
					c-0.5-0.6,0-1.5,0.8-1.4l17.1,2C961.5,58,961.8,59,961.1,59.4"/>
				<path class="st18" d="M977.9,3c-26.1,0-48,19.6-53.2,45.6c-3.4-2.4-7.3-3.9-11.5-4.4c-5.5-0.6-11,0.5-15.9,3.4
					c-0.7,0.4-1.1,1.1-1.1,1.9c0,0.6,0.3,1.2,0.7,1.6c3.7,3.6,8.4,5.9,13.3,6.8v0c0.7,0.1,1.4,0.2,2.1,0.3c-1.1,0.5-2.2,0.9-3.3,1.3
					l-1.1,0.3l-0.3,0.7c-2.2,4.8-3.2,10.1-3,15.4c0,1.1,0.6,2.1,1.6,2.6c0.5,0.3,1.1,0.5,1.7,0.5c0.5,0,1-0.1,1.5-0.3
					c6.4-3,11.4-8.4,14.3-15c1.5,30.3,25.3,54.5,54.3,54.5c30,0,54.4-25.8,54.4-57.6C1032.3,28.8,1007.9,3,977.9,3 M977.7,7.7
					c19.4,0,36.2,11.9,44.2,29.2c-1.1-1.3-2.2-2.6-3.4-3.9c-12-12.7-28.5-20.5-46.8-20.5c-5,0-9.9,0.6-14.6,1.7
					c-2.1,0.5-4.2,1.1-6.2,1.8C958.6,10.7,967.8,7.7,977.7,7.7 M978.2,113.4c-19.4,0-36.2-11.9-44.2-29.2c1.1,1.3,2.2,2.6,3.4,3.8
					c12,12.7,28.5,20.5,46.8,20.5c5,0,9.9-0.6,14.6-1.7c2.1-0.5,4.2-1.1,6.2-1.8C997.3,110.3,988.1,113.4,978.2,113.4 M979.7,66
					c-0.6,0-1.2,0-1.7,0c-17.6,0-35.1,0.9-47.5,2.4c-0.4-2.6-0.6-5.2-0.6-7.9c0-4.4,0.5-8.6,1.5-12.6c10.4,1.3,24.3,1.9,39.9,1.9
					c2.7,0,5.4,0,8-0.1c17.7-0.3,34.3-1.4,45-3.1c1.2,4.4,1.8,9,1.8,13.8c0,2.9-0.2,5.8-0.7,8.6C1015.1,67.2,998.9,66.1,979.7,66"/>
				<path class="st19" d="M971.8,12.5c18.3,0,34.8,7.8,46.8,20.5c1.2,1.2,2.3,2.5,3.4,3.9c-8-17.3-24.8-29.2-44.2-29.2
					c-9.9,0-19.1,3.1-26.8,8.4c2-0.7,4.1-1.3,6.2-1.8C961.9,13.1,966.7,12.5,971.8,12.5"/>
				<path class="st19" d="M984.2,108.5c-18.3,0-34.8-7.8-46.8-20.5c-1.2-1.2-2.3-2.5-3.4-3.8c8,17.3,24.8,29.2,44.2,29.2
					c9.9,0,19.1-3.1,26.8-8.4c-2,0.7-4.1,1.3-6.2,1.8C994.1,107.9,989.2,108.5,984.2,108.5"/>
				<path class="st20" d="M960.7,57.9l-17.1-2c-0.8-0.1-1.3,0.8-0.8,1.4c6.6,8.1,14.7,4.5,18.2,2.2C961.8,59,961.5,58,960.7,57.9"/>
				<path class="st20" d="M1013.5,55.9l-17.1,2c-0.8,0.1-1,1.1-0.4,1.5c3.5,2.2,11.6,5.9,18.2-2.2
					C1014.7,56.6,1014.2,55.8,1013.5,55.9"/>
				<path class="st21" d="M977.8,131.2c-14.4-0.2-28.1-5-39.6-14.2c-11.2-8.9-19.6-21.5-23.8-35.6l-0.3-1.1l0.8-0.7
					c1.2-1.1,2.4-2.3,3.4-3.7l2.3-2.9l0.9,3.5c10.2,32.1,30.5,45.9,56.4,45.9c0,0,0.1,0,0.2,0c15.5-0.1,30.1-6.6,41.1-18.3
					c11-11.8,17-27.4,17-44c-0.1-16.6-6.2-32.2-17.3-43.9c-11-11.6-25.6-18-41-18c-0.1,0-0.5,0-0.6,0c-25.3,0.1-47.3,17.4-54.8,43.1
					l-0.6,2l-1.9-0.9c-1.3-0.6-2.6-1.1-3.9-1.5l-1.7-0.5l0.5-1.7c8.6-29.1,33.6-48.7,62.3-48.8c0.1,0,0.5,0,0.6,0
					c17.7,0,34.3,7.3,46.8,20.6c12.6,13.3,19.6,31,19.6,49.8c0.2,38.9-29.5,70.7-66.2,70.8H977.8z"/>
			</g>
		</g>
	</g>
</g>
<g class="st22">
	<g>
		<defs>
			<rect id="SVGID_13_" x="1323.1" y="7.2" width="112.2" height="107"/>
		</defs>
		<clipPath id="SVGID_14_">
			<use xlink:href="#SVGID_13_"  style="overflow:visible;"/>
		</clipPath>
		<g class="st23">
			<g>
				<defs>
					<rect id="SVGID_15_" x="1323.1" y="7.2" width="112.2" height="107"/>
				</defs>
				<clipPath id="SVGID_16_">
					<use xlink:href="#SVGID_15_"  style="overflow:visible;"/>
				</clipPath>
				<path class="st24" d="M1418.4,50.5c-7.8,1.2-19.8,2.1-32.7,2.2l0.4,0l-0.2,11.8c14,0,25.8,0.8,33.3,2.2c0.3-2,0.5-4.1,0.5-6.2
					C1419.7,57.1,1419.3,53.7,1418.4,50.5 M1411.1,58.2c-4.8,5.9-10.7,3.3-13.2,1.6c-0.5-0.3-0.3-1.1,0.3-1.1l12.4-1.5
					C1411.1,57.1,1411.5,57.7,1411.1,58.2"/>
				<path class="st25" d="M1385.6,52.7c-1.9,0-3.9,0-5.8,0c-11.3,0-21.5-0.5-29-1.4c-0.7,2.9-1.1,6-1.1,9.2c0,2,0.1,3.9,0.4,5.7
					c9-1.1,21.7-1.7,34.5-1.7c0.4,0,0.8,0,1.3,0l0.2-11.8L1385.6,52.7z M1372.4,59.8c-2.6,1.6-8.5,4.3-13.2-1.6
					c-0.3-0.4,0-1.1,0.6-1l12.4,1.5C1372.8,58.7,1372.9,59.5,1372.4,59.8"/>
				<path class="st26" d="M1384.7,18.7c-19,0-34.9,14.3-38.7,33.2c-2.5-1.7-5.3-2.8-8.4-3.2c-4-0.5-8,0.4-11.6,2.5
					c-0.5,0.3-0.8,0.8-0.8,1.4c0,0.4,0.2,0.9,0.5,1.2c2.7,2.6,6.1,4.3,9.7,5v0c0.5,0.1,1,0.2,1.5,0.2c-0.8,0.4-1.6,0.7-2.4,0.9
					l-0.8,0.2l-0.3,0.5c-1.6,3.5-2.4,7.3-2.2,11.2c0,0.8,0.5,1.5,1.2,1.9c0.4,0.2,0.8,0.3,1.2,0.3c0.4,0,0.7-0.1,1.1-0.2
					c4.6-2.2,8.3-6.1,10.4-10.9c1.1,22.1,18.4,39.6,39.5,39.6c21.8,0,39.6-18.8,39.6-41.9C1424.3,37.5,1406.5,18.7,1384.7,18.7
					 M1384.6,22.1c14.1,0,26.3,8.7,32.2,21.3c-0.8-1-1.6-1.9-2.5-2.8c-8.7-9.2-20.8-14.9-34.1-14.9c-3.7,0-7.2,0.4-10.6,1.3
					c-1.5,0.4-3.1,0.8-4.5,1.3C1370.7,24.3,1377.4,22.1,1384.6,22.1 M1384.9,99c-14.1,0-26.3-8.7-32.2-21.3c0.8,1,1.6,1.9,2.5,2.8
					c8.7,9.2,20.8,14.9,34.1,14.9c3.7,0,7.2-0.4,10.6-1.3c1.5-0.4,3.1-0.8,4.5-1.3C1398.8,96.8,1392.1,99,1384.9,99 M1386,64.6
					c-0.4,0-0.8,0-1.3,0c-12.8,0-25.6,0.7-34.5,1.7c-0.3-1.9-0.4-3.8-0.4-5.7c0-3.2,0.4-6.2,1.1-9.2c7.5,0.9,17.7,1.4,29,1.4
					c2,0,3.9,0,5.8,0c12.9-0.2,25-1,32.7-2.2c0.8,3.2,1.3,6.6,1.3,10.1c0,2.1-0.2,4.2-0.5,6.2C1411.7,65.4,1400,64.6,1386,64.6"/>
				<path class="st27" d="M1380.2,25.6c13.3,0,25.3,5.7,34.1,14.9c0.9,0.9,1.7,1.8,2.5,2.8c-5.8-12.6-18-21.3-32.2-21.3
					c-7.2,0-13.9,2.2-19.5,6.1c1.5-0.5,3-1,4.5-1.3C1373,26.1,1376.6,25.6,1380.2,25.6"/>
				<path class="st27" d="M1389.3,95.5c-13.3,0-25.3-5.7-34.1-14.9c-0.8-0.9-1.7-1.8-2.5-2.8c5.8,12.6,18,21.3,32.2,21.3
					c7.2,0,13.9-2.2,19.5-6.1c-1.5,0.5-3,1-4.5,1.3C1396.5,95.1,1392.9,95.5,1389.3,95.5"/>
				<path class="st28" d="M1372.2,58.6l-12.4-1.5c-0.6-0.1-0.9,0.6-0.6,1c4.8,5.9,10.7,3.3,13.2,1.6
					C1372.9,59.5,1372.8,58.7,1372.2,58.6"/>
				<path class="st28" d="M1410.6,57.2l-12.4,1.5c-0.6,0.1-0.8,0.8-0.3,1.1c2.6,1.6,8.5,4.3,13.2-1.6
					C1411.5,57.7,1411.1,57.1,1410.6,57.2"/>
				<path class="st29" d="M1384.6,112c-10.5-0.1-20.5-3.7-28.9-10.3c-8.2-6.5-14.3-15.7-17.3-25.9l-0.2-0.8l0.6-0.5
					c0.9-0.8,1.7-1.7,2.5-2.7l1.7-2.1l0.7,2.6c7.4,23.3,22.2,33.4,41,33.4c0,0,0.1,0,0.2,0c11.3,0,21.9-4.8,29.9-13.3
					c8-8.6,12.4-20,12.4-32c0-12.1-4.5-23.4-12.6-31.9c-8-8.5-18.6-13.1-29.9-13.1c-0.1,0-0.4,0-0.4,0
					c-18.4,0.1-34.4,12.7-39.9,31.4l-0.4,1.5l-1.4-0.7c-0.9-0.4-1.9-0.8-2.8-1.1l-1.2-0.4l0.4-1.2c6.2-21.2,24.5-35.5,45.3-35.6
					c0.1,0,0.4,0,0.5,0c12.9,0,25,5.3,34.1,15c9.2,9.7,14.2,22.5,14.3,36.2c0.1,28.3-21.5,51.5-48.2,51.6H1384.6z"/>
			</g>
		</g>
	</g>
</g>
<g class="st22">
	<g>
		<defs>
			<rect id="SVGID_17_" x="1129.1" y="7.2" width="112.2" height="107"/>
		</defs>
		<clipPath id="SVGID_18_">
			<use xlink:href="#SVGID_17_"  style="overflow:visible;"/>
		</clipPath>
		<g class="st30">
			<g>
				<defs>
					<rect id="SVGID_19_" x="1129.1" y="7.2" width="112.2" height="107"/>
				</defs>
				<clipPath id="SVGID_20_">
					<use xlink:href="#SVGID_19_"  style="overflow:visible;"/>
				</clipPath>
				<path class="st31" d="M1224.5,50.5c-7.8,1.2-19.8,2.1-32.7,2.2l0.4,0l-0.2,11.8c14,0,25.8,0.8,33.3,2.2c0.3-2,0.5-4.1,0.5-6.2
					C1225.8,57.1,1225.3,53.7,1224.5,50.5 M1217.2,58.2c-4.8,5.9-10.7,3.3-13.2,1.6c-0.5-0.3-0.3-1.1,0.3-1.1l12.4-1.5
					C1217.2,57.1,1217.5,57.7,1217.2,58.2"/>
				<path class="st32" d="M1191.7,52.7c-1.9,0-3.9,0-5.8,0c-11.3,0-21.5-0.5-29-1.4c-0.7,2.9-1.1,6-1.1,9.2c0,2,0.1,3.9,0.4,5.7
					c9-1.1,21.7-1.7,34.5-1.7c0.4,0,0.8,0,1.3,0l0.2-11.8L1191.7,52.7z M1178.5,59.8c-2.6,1.6-8.5,4.3-13.2-1.6
					c-0.3-0.4,0-1.1,0.6-1l12.4,1.5C1178.8,58.7,1179,59.5,1178.5,59.8"/>
				<path class="st33" d="M1190.8,18.7c-19,0-34.9,14.3-38.7,33.2c-2.5-1.7-5.3-2.8-8.4-3.2c-4-0.5-8,0.4-11.6,2.5
					c-0.5,0.3-0.8,0.8-0.8,1.4c0,0.4,0.2,0.9,0.5,1.2c2.7,2.6,6.1,4.3,9.7,5v0c0.5,0.1,1,0.2,1.5,0.2c-0.8,0.4-1.6,0.7-2.4,0.9
					l-0.8,0.2l-0.3,0.5c-1.6,3.5-2.4,7.3-2.2,11.2c0,0.8,0.5,1.5,1.2,1.9c0.4,0.2,0.8,0.3,1.2,0.3c0.4,0,0.7-0.1,1.1-0.2
					c4.6-2.2,8.3-6.1,10.4-10.9c1.1,22.1,18.4,39.6,39.5,39.6c21.8,0,39.6-18.8,39.6-41.9C1230.4,37.5,1212.6,18.7,1190.8,18.7
					 M1190.6,22.1c14.1,0,26.3,8.7,32.2,21.3c-0.8-1-1.6-1.9-2.5-2.8c-8.7-9.2-20.8-14.9-34.1-14.9c-3.7,0-7.2,0.4-10.6,1.3
					c-1.5,0.4-3.1,0.8-4.5,1.3C1176.7,24.3,1183.4,22.1,1190.6,22.1 M1191,99c-14.1,0-26.3-8.7-32.2-21.3c0.8,1,1.6,1.9,2.5,2.8
					c8.7,9.2,20.8,14.9,34.1,14.9c3.7,0,7.2-0.4,10.6-1.3c1.5-0.4,3.1-0.8,4.5-1.3C1204.9,96.8,1198.2,99,1191,99 M1192,64.6
					c-0.4,0-0.8,0-1.3,0c-12.8,0-25.6,0.7-34.5,1.7c-0.3-1.9-0.4-3.8-0.4-5.7c0-3.2,0.4-6.2,1.1-9.2c7.5,0.9,17.7,1.4,29,1.4
					c2,0,3.9,0,5.8,0c12.9-0.2,25-1,32.7-2.2c0.8,3.2,1.3,6.6,1.3,10.1c0,2.1-0.2,4.2-0.5,6.2C1217.8,65.4,1206,64.6,1192,64.6"/>
				<path class="st34" d="M1186.3,25.6c13.3,0,25.3,5.7,34.1,14.9c0.9,0.9,1.7,1.8,2.5,2.8c-5.8-12.6-18-21.3-32.2-21.3
					c-7.2,0-13.9,2.2-19.5,6.1c1.5-0.5,3-1,4.5-1.3C1179.1,26.1,1182.6,25.6,1186.3,25.6"/>
				<path class="st34" d="M1195.3,95.5c-13.3,0-25.3-5.7-34.1-14.9c-0.8-0.9-1.7-1.8-2.5-2.8c5.8,12.6,18,21.3,32.2,21.3
					c7.2,0,13.9-2.2,19.5-6.1c-1.5,0.5-3,1-4.5,1.3C1202.5,95.1,1199,95.5,1195.3,95.5"/>
				<path class="st35" d="M1178.2,58.6l-12.4-1.5c-0.6-0.1-0.9,0.6-0.6,1c4.8,5.9,10.7,3.3,13.2,1.6
					C1179,59.5,1178.8,58.7,1178.2,58.6"/>
				<path class="st35" d="M1216.6,57.2l-12.4,1.5c-0.6,0.1-0.8,0.8-0.3,1.1c2.6,1.6,8.5,4.3,13.2-1.6
					C1217.5,57.7,1217.2,57.1,1216.6,57.2"/>
				<path class="st36" d="M1190.7,112c-10.5-0.1-20.5-3.7-28.9-10.3c-8.2-6.5-14.3-15.7-17.3-25.9l-0.2-0.8l0.6-0.5
					c0.9-0.8,1.7-1.7,2.5-2.7l1.7-2.1l0.7,2.6c7.4,23.3,22.2,33.4,41,33.4c0,0,0.1,0,0.2,0c11.3,0,21.9-4.8,29.9-13.3
					c8-8.6,12.4-20,12.4-32c0-12.1-4.5-23.4-12.6-31.9c-8-8.5-18.6-13.1-29.9-13.1c-0.1,0-0.4,0-0.4,0
					c-18.4,0.1-34.4,12.7-39.9,31.4l-0.4,1.5l-1.4-0.7c-0.9-0.4-1.9-0.8-2.8-1.1l-1.2-0.4l0.4-1.2c6.2-21.2,24.5-35.5,45.3-35.6
					c0.1,0,0.4,0,0.5,0c12.9,0,25,5.3,34.1,15c9.2,9.7,14.2,22.5,14.3,36.2c0.1,28.3-21.5,51.5-48.2,51.6H1190.7z"/>
			</g>
		</g>
	</g>
</g>
<g class="st22">
	<g>
		<defs>
			<rect id="SVGID_21_" x="1517" y="7.2" width="112.2" height="107"/>
		</defs>
		<clipPath id="SVGID_22_">
			<use xlink:href="#SVGID_21_"  style="overflow:visible;"/>
		</clipPath>
		<g class="st37">
			<g>
				<defs>
					<rect id="SVGID_23_" x="1517" y="7.2" width="112.2" height="107"/>
				</defs>
				<clipPath id="SVGID_24_">
					<use xlink:href="#SVGID_23_"  style="overflow:visible;"/>
				</clipPath>
				<path class="st38" d="M1612.4,50.5c-7.8,1.2-19.8,2.1-32.7,2.2l0.4,0l-0.2,11.8c14,0,25.8,0.8,33.3,2.2c0.3-2,0.5-4.1,0.5-6.2
					C1613.7,57.1,1613.2,53.7,1612.4,50.5 M1605.1,58.2c-4.8,5.9-10.7,3.3-13.2,1.6c-0.5-0.3-0.3-1.1,0.3-1.1l12.4-1.5
					C1605.1,57.1,1605.4,57.7,1605.1,58.2"/>
				<path class="st39" d="M1579.6,52.7c-1.9,0-3.9,0-5.8,0c-11.3,0-21.5-0.5-29-1.4c-0.7,2.9-1.1,6-1.1,9.2c0,2,0.1,3.9,0.4,5.7
					c9-1.1,21.7-1.7,34.5-1.7c0.4,0,0.8,0,1.3,0l0.2-11.8L1579.6,52.7z M1566.4,59.8c-2.6,1.6-8.5,4.3-13.2-1.6
					c-0.3-0.4,0-1.1,0.6-1l12.4,1.5C1566.7,58.7,1566.9,59.5,1566.4,59.8"/>
				<path class="st40" d="M1578.6,18.7c-19,0-34.9,14.3-38.7,33.2c-2.5-1.7-5.3-2.8-8.4-3.2c-4-0.5-8,0.4-11.6,2.5
					c-0.5,0.3-0.8,0.8-0.8,1.4c0,0.4,0.2,0.9,0.5,1.2c2.7,2.6,6.1,4.3,9.7,5v0c0.5,0.1,1,0.2,1.5,0.2c-0.8,0.4-1.6,0.7-2.4,0.9
					l-0.8,0.2l-0.3,0.5c-1.6,3.5-2.4,7.3-2.2,11.2c0,0.8,0.5,1.5,1.2,1.9c0.4,0.2,0.8,0.3,1.2,0.3c0.4,0,0.7-0.1,1.1-0.2
					c4.6-2.2,8.3-6.1,10.4-10.9c1.1,22.1,18.4,39.6,39.5,39.6c21.8,0,39.6-18.8,39.6-41.9C1618.2,37.5,1600.5,18.7,1578.6,18.7
					 M1578.5,22.1c14.1,0,26.3,8.7,32.2,21.3c-0.8-1-1.6-1.9-2.5-2.8c-8.7-9.2-20.8-14.9-34.1-14.9c-3.7,0-7.2,0.4-10.6,1.3
					c-1.5,0.4-3.1,0.8-4.5,1.3C1564.6,24.3,1571.3,22.1,1578.5,22.1 M1578.9,99c-14.1,0-26.3-8.7-32.2-21.3c0.8,1,1.6,1.9,2.5,2.8
					c8.7,9.2,20.8,14.9,34.1,14.9c3.7,0,7.2-0.4,10.6-1.3c1.5-0.4,3.1-0.8,4.5-1.3C1592.8,96.8,1586.1,99,1578.9,99 M1579.9,64.6
					c-0.4,0-0.8,0-1.3,0c-12.8,0-25.6,0.7-34.5,1.7c-0.3-1.9-0.4-3.8-0.4-5.7c0-3.2,0.4-6.2,1.1-9.2c7.5,0.9,17.7,1.4,29,1.4
					c2,0,3.9,0,5.8,0c12.9-0.2,25-1,32.7-2.2c0.8,3.2,1.3,6.6,1.3,10.1c0,2.1-0.2,4.2-0.5,6.2C1605.7,65.4,1593.9,64.6,1579.9,64.6"
					/>
				<path class="st41" d="M1574.1,25.6c13.3,0,25.3,5.7,34.1,14.9c0.9,0.9,1.7,1.8,2.5,2.8c-5.8-12.6-18-21.3-32.2-21.3
					c-7.2,0-13.9,2.2-19.5,6.1c1.5-0.5,3-1,4.5-1.3C1566.9,26.1,1570.5,25.6,1574.1,25.6"/>
				<path class="st41" d="M1583.2,95.5c-13.3,0-25.3-5.7-34.1-14.9c-0.8-0.9-1.7-1.8-2.5-2.8c5.8,12.6,18,21.3,32.2,21.3
					c7.2,0,13.9-2.2,19.5-6.1c-1.5,0.5-3,1-4.5,1.3C1590.4,95.1,1586.9,95.5,1583.2,95.5"/>
				<path class="st42" d="M1566.1,58.6l-12.4-1.5c-0.6-0.1-0.9,0.6-0.6,1c4.8,5.9,10.7,3.3,13.2,1.6
					C1566.9,59.5,1566.7,58.7,1566.1,58.6"/>
				<path class="st42" d="M1604.5,57.2l-12.4,1.5c-0.6,0.1-0.8,0.8-0.3,1.1c2.6,1.6,8.5,4.3,13.2-1.6
					C1605.4,57.7,1605.1,57.1,1604.5,57.2"/>
				<path class="st43" d="M1578.5,112c-10.5-0.1-20.5-3.7-28.9-10.3c-8.2-6.5-14.3-15.7-17.3-25.9l-0.2-0.8l0.6-0.5
					c0.9-0.8,1.7-1.7,2.5-2.7l1.7-2.1l0.7,2.6c7.4,23.3,22.2,33.4,41,33.4c0,0,0.1,0,0.2,0c11.3,0,21.9-4.8,29.9-13.3
					c8-8.6,12.4-20,12.4-32c0-12.1-4.5-23.4-12.6-31.9c-8-8.5-18.6-13.1-29.9-13.1c-0.1,0-0.4,0-0.4,0
					c-18.4,0.1-34.4,12.7-39.9,31.4l-0.4,1.5l-1.4-0.7c-0.9-0.4-1.9-0.8-2.8-1.1l-1.2-0.4l0.4-1.2c6.2-21.2,24.5-35.5,45.3-35.6
					c0.1,0,0.4,0,0.5,0c12.9,0,25,5.3,34.1,15c9.2,9.7,14.2,22.5,14.3,36.2c0.1,28.3-21.5,51.5-48.2,51.6H1578.5z"/>
			</g>
		</g>
	</g>
</g>
<g class="st22">
	<g>
		<defs>
			<rect id="SVGID_25_" x="1711" y="7.2" width="112.2" height="107"/>
		</defs>
		<clipPath id="SVGID_26_">
			<use xlink:href="#SVGID_25_"  style="overflow:visible;"/>
		</clipPath>
		<g class="st44">
			<g>
				<defs>
					<rect id="SVGID_27_" x="1711" y="7.2" width="112.2" height="107"/>
				</defs>
				<clipPath id="SVGID_28_">
					<use xlink:href="#SVGID_27_"  style="overflow:visible;"/>
				</clipPath>
				<path class="st45" d="M1806.3,50.5c-7.8,1.2-19.8,2.1-32.7,2.2l0.4,0l-0.2,11.8c14,0,25.8,0.8,33.3,2.2c0.3-2,0.5-4.1,0.5-6.2
					C1807.6,57.1,1807.1,53.7,1806.3,50.5 M1799,58.2c-4.8,5.9-10.7,3.3-13.2,1.6c-0.5-0.3-0.3-1.1,0.3-1.1l12.4-1.5
					C1799,57.1,1799.4,57.7,1799,58.2"/>
				<path class="st46" d="M1773.5,52.7c-1.9,0-3.9,0-5.8,0c-11.3,0-21.5-0.5-29-1.4c-0.7,2.9-1.1,6-1.1,9.2c0,2,0.1,3.9,0.4,5.7
					c9-1.1,21.7-1.7,34.5-1.7c0.4,0,0.8,0,1.3,0l0.2-11.8L1773.5,52.7z M1760.3,59.8c-2.6,1.6-8.5,4.3-13.2-1.6
					c-0.3-0.4,0-1.1,0.6-1l12.4,1.5C1760.6,58.7,1760.8,59.5,1760.3,59.8"/>
				<path class="st47" d="M1772.6,18.7c-19,0-34.9,14.3-38.7,33.2c-2.5-1.7-5.3-2.8-8.4-3.2c-4-0.5-8,0.4-11.6,2.5
					c-0.5,0.3-0.8,0.8-0.8,1.4c0,0.4,0.2,0.9,0.5,1.2c2.7,2.6,6.1,4.3,9.7,5v0c0.5,0.1,1,0.2,1.5,0.2c-0.8,0.4-1.6,0.7-2.4,0.9
					l-0.8,0.2l-0.3,0.5c-1.6,3.5-2.4,7.3-2.2,11.2c0,0.8,0.5,1.5,1.2,1.9c0.4,0.2,0.8,0.3,1.2,0.3c0.4,0,0.7-0.1,1.1-0.2
					c4.6-2.2,8.3-6.1,10.4-10.9c1.1,22.1,18.4,39.6,39.5,39.6c21.8,0,39.6-18.8,39.6-41.9C1812.2,37.5,1794.4,18.7,1772.6,18.7
					 M1772.4,22.1c14.1,0,26.3,8.7,32.2,21.3c-0.8-1-1.6-1.9-2.5-2.8c-8.7-9.2-20.8-14.9-34.1-14.9c-3.7,0-7.2,0.4-10.6,1.3
					c-1.5,0.4-3.1,0.8-4.5,1.3C1758.5,24.3,1765.2,22.1,1772.4,22.1 M1772.8,99c-14.1,0-26.3-8.7-32.2-21.3c0.8,1,1.6,1.9,2.5,2.8
					c8.7,9.2,20.8,14.9,34.1,14.9c3.7,0,7.2-0.4,10.6-1.3c1.5-0.4,3.1-0.8,4.5-1.3C1786.7,96.8,1780,99,1772.8,99 M1773.8,64.6
					c-0.4,0-0.8,0-1.3,0c-12.8,0-25.6,0.7-34.5,1.7c-0.3-1.9-0.4-3.8-0.4-5.7c0-3.2,0.4-6.2,1.1-9.2c7.5,0.9,17.7,1.4,29,1.4
					c2,0,3.9,0,5.8,0c12.9-0.2,25-1,32.7-2.2c0.8,3.2,1.3,6.6,1.3,10.1c0,2.1-0.2,4.2-0.5,6.2C1799.6,65.4,1787.8,64.6,1773.8,64.6"
					/>
				<path class="st48" d="M1768.1,25.6c13.3,0,25.3,5.7,34.1,14.9c0.9,0.9,1.7,1.8,2.5,2.8c-5.8-12.6-18-21.3-32.2-21.3
					c-7.2,0-13.9,2.2-19.5,6.1c1.5-0.5,3-1,4.5-1.3C1760.9,26.1,1764.4,25.6,1768.1,25.6"/>
				<path class="st48" d="M1777.1,95.5c-13.3,0-25.3-5.7-34.1-14.9c-0.8-0.9-1.7-1.8-2.5-2.8c5.8,12.6,18,21.3,32.2,21.3
					c7.2,0,13.9-2.2,19.5-6.1c-1.5,0.5-3,1-4.5,1.3C1784.3,95.1,1780.8,95.5,1777.1,95.5"/>
				<path class="st49" d="M1760.1,58.6l-12.4-1.5c-0.6-0.1-0.9,0.6-0.6,1c4.8,5.9,10.7,3.3,13.2,1.6
					C1760.8,59.5,1760.6,58.7,1760.1,58.6"/>
				<path class="st49" d="M1798.4,57.2l-12.4,1.5c-0.6,0.1-0.8,0.8-0.3,1.1c2.6,1.6,8.5,4.3,13.2-1.6
					C1799.4,57.7,1799,57.1,1798.4,57.2"/>
				<path class="st50" d="M1772.5,112c-10.5-0.1-20.5-3.7-28.9-10.3c-8.2-6.5-14.3-15.7-17.3-25.9l-0.2-0.8l0.6-0.5
					c0.9-0.8,1.7-1.7,2.5-2.7l1.7-2.1l0.7,2.6c7.4,23.3,22.2,33.4,41,33.4c0,0,0.1,0,0.2,0c11.3,0,21.9-4.8,29.9-13.3
					c8-8.6,12.4-20,12.4-32c0-12.1-4.5-23.4-12.6-31.9c-8-8.5-18.6-13.1-29.9-13.1c-0.1,0-0.4,0-0.4,0
					c-18.4,0.1-34.4,12.7-39.9,31.4l-0.4,1.5l-1.4-0.7c-0.9-0.4-1.9-0.8-2.8-1.1l-1.2-0.4l0.4-1.2c6.2-21.2,24.5-35.5,45.3-35.6
					c0.1,0,0.4,0,0.5,0c12.9,0,25,5.3,34.1,15c9.2,9.7,14.2,22.5,14.3,36.2c0.1,28.3-21.5,51.5-48.2,51.6H1772.5z"/>
			</g>
		</g>
	</g>
</g>
<g class="st22">
	<g>
		<defs>
			<rect id="SVGID_29_" x="1904.9" y="7.2" width="112.2" height="107"/>
		</defs>
		<clipPath id="SVGID_30_">
			<use xlink:href="#SVGID_29_"  style="overflow:visible;"/>
		</clipPath>
		<g class="st51">
			<g>
				<defs>
					<rect id="SVGID_31_" x="1904.9" y="7.2" width="112.2" height="107"/>
				</defs>
				<clipPath id="SVGID_32_">
					<use xlink:href="#SVGID_31_"  style="overflow:visible;"/>
				</clipPath>
				<path class="st52" d="M2000.2,50.5c-7.8,1.2-19.8,2.1-32.7,2.2l0.4,0l-0.2,11.8c14,0,25.8,0.8,33.3,2.2c0.3-2,0.5-4.1,0.5-6.2
					C2001.5,57.1,2001.1,53.7,2000.2,50.5 M1992.9,58.2c-4.8,5.9-10.7,3.3-13.2,1.6c-0.5-0.3-0.3-1.1,0.3-1.1l12.4-1.5
					C1992.9,57.1,1993.3,57.7,1992.9,58.2"/>
				<path class="st53" d="M1967.4,52.7c-1.9,0-3.9,0-5.8,0c-11.3,0-21.5-0.5-29-1.4c-0.7,2.9-1.1,6-1.1,9.2c0,2,0.1,3.9,0.4,5.7
					c9-1.1,21.7-1.7,34.5-1.7c0.4,0,0.8,0,1.3,0l0.2-11.8L1967.4,52.7z M1954.2,59.8c-2.6,1.6-8.5,4.3-13.2-1.6
					c-0.3-0.4,0-1.1,0.6-1l12.4,1.5C1954.6,58.7,1954.7,59.5,1954.2,59.8"/>
				<path class="st54" d="M1966.5,18.7c-19,0-34.9,14.3-38.7,33.2c-2.5-1.7-5.3-2.8-8.4-3.2c-4-0.5-8,0.4-11.6,2.5
					c-0.5,0.3-0.8,0.8-0.8,1.4c0,0.4,0.2,0.9,0.5,1.2c2.7,2.6,6.1,4.3,9.7,5v0c0.5,0.1,1,0.2,1.5,0.2c-0.8,0.4-1.6,0.7-2.4,0.9
					l-0.8,0.2l-0.3,0.5c-1.6,3.5-2.4,7.3-2.2,11.2c0,0.8,0.5,1.5,1.2,1.9c0.4,0.2,0.8,0.3,1.2,0.3c0.4,0,0.7-0.1,1.1-0.2
					c4.6-2.2,8.3-6.1,10.4-10.9c1.1,22.1,18.4,39.6,39.5,39.6c21.8,0,39.6-18.8,39.6-41.9C2006.1,37.5,1988.3,18.7,1966.5,18.7
					 M1966.4,22.1c14.1,0,26.3,8.7,32.2,21.3c-0.8-1-1.6-1.9-2.5-2.8c-8.7-9.2-20.8-14.9-34.1-14.9c-3.7,0-7.2,0.4-10.6,1.3
					c-1.5,0.4-3.1,0.8-4.5,1.3C1952.5,24.3,1959.2,22.1,1966.4,22.1 M1966.7,99c-14.1,0-26.3-8.7-32.2-21.3c0.8,1,1.6,1.9,2.5,2.8
					c8.7,9.2,20.8,14.9,34.1,14.9c3.7,0,7.2-0.4,10.6-1.3c1.5-0.4,3.1-0.8,4.5-1.3C1980.6,96.8,1973.9,99,1966.7,99 M1967.8,64.6
					c-0.4,0-0.8,0-1.3,0c-12.8,0-25.6,0.7-34.5,1.7c-0.3-1.9-0.4-3.8-0.4-5.7c0-3.2,0.4-6.2,1.1-9.2c7.5,0.9,17.7,1.4,29,1.4
					c2,0,3.9,0,5.8,0c12.9-0.2,25-1,32.7-2.2c0.8,3.2,1.3,6.6,1.3,10.1c0,2.1-0.2,4.2-0.5,6.2C1993.6,65.4,1981.8,64.6,1967.8,64.6"
					/>
				<path class="st55" d="M1962,25.6c13.3,0,25.3,5.7,34.1,14.9c0.9,0.9,1.7,1.8,2.5,2.8c-5.8-12.6-18-21.3-32.2-21.3
					c-7.2,0-13.9,2.2-19.5,6.1c1.5-0.5,3-1,4.5-1.3C1954.8,26.1,1958.4,25.6,1962,25.6"/>
				<path class="st55" d="M1971.1,95.5c-13.3,0-25.3-5.7-34.1-14.9c-0.8-0.9-1.7-1.8-2.5-2.8c5.8,12.6,18,21.3,32.2,21.3
					c7.2,0,13.9-2.2,19.5-6.1c-1.5,0.5-3,1-4.5,1.3C1978.3,95.1,1974.7,95.5,1971.1,95.5"/>
				<path class="st56" d="M1954,58.6l-12.4-1.5c-0.6-0.1-0.9,0.6-0.6,1c4.8,5.9,10.7,3.3,13.2,1.6
					C1954.7,59.5,1954.6,58.7,1954,58.6"/>
				<path class="st56" d="M1992.4,57.2l-12.4,1.5c-0.6,0.1-0.8,0.8-0.3,1.1c2.6,1.6,8.5,4.3,13.2-1.6
					C1993.3,57.7,1992.9,57.1,1992.4,57.2"/>
				<path class="st57" d="M1966.4,112c-10.5-0.1-20.5-3.7-28.9-10.3c-8.2-6.5-14.3-15.7-17.3-25.9L1920,75l0.6-0.5
					c0.9-0.8,1.7-1.7,2.5-2.7l1.7-2.1l0.7,2.6c7.4,23.3,22.2,33.4,41,33.4c0,0,0.1,0,0.2,0c11.3,0,21.9-4.8,29.9-13.3
					c8-8.6,12.4-20,12.4-32c0-12.1-4.5-23.4-12.6-31.9c-8-8.5-18.6-13.1-29.9-13.1c-0.1,0-0.4,0-0.4,0
					c-18.4,0.1-34.4,12.7-39.9,31.4l-0.4,1.5l-1.4-0.7c-0.9-0.4-1.9-0.8-2.8-1.1l-1.2-0.4l0.4-1.2c6.2-21.2,24.5-35.5,45.3-35.6
					c0.1,0,0.4,0,0.5,0c12.9,0,25,5.3,34.1,15c9.2,9.7,14.2,22.5,14.3,36.2c0.1,28.3-21.5,51.5-48.2,51.6H1966.4z"/>
			</g>
		</g>
	</g>
</g>
</svg>
